ply
format ascii 1.0
comment Created by Blender 2.75 (sub 0) - www.blender.org, source file: ''
element vertex 162
property float x
property float y
property float z
property float nx
property float ny
property float nz
element face 320
property list uchar uint vertex_indices
end_header
-0.376721 0.000000 -0.328757 -0.746849 0.000000 -0.664937
-0.415525 -0.119427 -0.251149 -0.827418 -0.247963 -0.503800
-0.447213 0.000000 -0.223608 -0.894406 0.000000 -0.447188
0.000000 0.000000 -0.500000 0.000000 0.000000 -1.000000
0.101590 -0.073809 -0.483975 0.210944 -0.153233 -0.965392
-0.038803 -0.119426 -0.483975 -0.080569 -0.247963 -0.965392
0.361804 -0.262863 -0.223610 0.723594 -0.525712 -0.447218
0.304773 -0.221428 -0.328759 0.604205 -0.438978 -0.664968
0.406365 -0.147619 -0.251150 0.815180 -0.285714 -0.503800
-0.125573 0.000000 -0.483974 -0.260750 0.000000 -0.965392
-0.038803 0.119426 -0.483975 -0.080569 0.247963 -0.965392
0.101590 0.073809 -0.483975 0.210944 0.153233 -0.965392
0.430349 -0.221429 -0.125575 0.864986 -0.438978 -0.243049
-0.138194 -0.425325 -0.223610 -0.276376 -0.850642 -0.447188
-0.014820 -0.432092 -0.251151 -0.019807 -0.863582 -0.503800
-0.077608 -0.477711 -0.125576 -0.150212 -0.958281 -0.243049
-0.478313 -0.073809 -0.125575 -0.957823 -0.153264 -0.243049
-0.138194 0.425325 -0.223610 -0.276376 0.850642 -0.447188
-0.241986 0.358282 -0.251151 -0.491531 0.710288 -0.503800
-0.218003 0.432094 -0.125576 -0.441725 0.863582 -0.243049
0.361804 0.262863 -0.223610 0.723594 0.525712 -0.447218
0.265970 0.340856 -0.251151 0.523637 0.686972 -0.503800
0.343579 0.340858 -0.125576 0.684805 0.686972 -0.243049
0.343579 -0.340858 -0.125576 0.684805 -0.686972 -0.243049
-0.218003 -0.432094 -0.125576 -0.441725 -0.863582 -0.243049
-0.478313 0.073809 -0.125575 -0.957823 0.153264 -0.243049
-0.077608 0.477711 -0.125576 -0.150212 0.958281 -0.243049
0.430349 0.221429 -0.125575 0.864986 0.438978 -0.243049
0.138194 -0.425325 0.223610 0.276376 -0.850642 0.447188
0.241986 -0.358282 0.251151 0.491531 -0.710288 0.503800
0.116411 -0.358282 0.328760 0.230781 -0.710288 0.664968
-0.361804 -0.262863 0.223610 -0.723594 -0.525712 0.447218
-0.265970 -0.340856 0.251151 -0.523637 -0.686972 0.503800
-0.304773 -0.221428 0.328759 -0.604205 -0.438978 0.664968
-0.361804 0.262863 0.223610 -0.723594 0.525712 0.447218
-0.406365 0.147619 0.251150 -0.815180 0.285714 0.503800
-0.304773 0.221428 0.328759 -0.604205 0.438978 0.664968
0.138194 0.425325 0.223610 0.276376 0.850642 0.447188
0.014820 0.432092 0.251151 0.019837 0.863552 0.503800
0.116411 0.358282 0.328760 0.230781 0.710288 0.664968
0.447213 0.000000 0.223608 0.894406 0.000000 0.447188
0.415525 0.119427 0.251149 0.827448 0.247963 0.503800
0.376721 0.000000 0.328757 0.746849 0.000000 0.664937
0.125573 0.000000 0.483974 0.260750 0.000000 0.965392
0.038803 0.119426 0.483975 0.080569 0.247963 0.965392
0.000000 0.000000 0.500000 0.000000 0.000000 1.000000
0.262865 0.000000 0.425326 0.525712 0.000000 0.850642
0.180900 0.131431 0.447215 0.368175 0.267495 0.890408
0.319097 0.131432 0.361805 0.631733 0.267495 0.727531
0.081228 0.249998 0.425327 0.162450 0.499985 0.850642
0.223605 0.262864 0.361806 0.449629 0.518143 0.727531
0.344095 0.249998 0.262868 0.688162 0.499985 0.525712
0.241986 0.358282 0.251151 0.491531 0.710288 0.503800
-0.101590 0.073809 0.483975 -0.210944 0.153264 0.965392
-0.069099 0.212660 0.447215 -0.140629 0.432844 0.890408
-0.026395 0.344092 0.361806 -0.059206 0.683493 0.727531
-0.212661 0.154506 0.425327 -0.425306 0.309000 0.850642
-0.180902 0.293889 0.361806 -0.353832 0.587725 0.727531
-0.131434 0.404506 0.262869 -0.262856 0.808985 0.525712
-0.265970 0.340856 0.251151 -0.523637 0.686972 0.503800
-0.101590 -0.073809 0.483975 -0.210944 -0.153264 0.965392
-0.223605 0.000000 0.447215 -0.455123 0.000000 0.890408
-0.335408 0.081229 0.361805 -0.668325 0.154881 0.727531
-0.212661 -0.154506 0.425327 -0.425306 -0.309000 0.850642
-0.335408 -0.081229 0.361805 -0.668325 -0.154881 0.727531
-0.425324 0.000000 0.262868 -0.850642 0.000000 0.525712
-0.406365 -0.147619 0.251150 -0.815180 -0.285714 0.503800
0.038803 -0.119426 0.483975 0.080569 -0.247963 0.965392
-0.069099 -0.212660 0.447215 -0.140629 -0.432844 0.890408
-0.180902 -0.293889 0.361806 -0.353832 -0.587725 0.727531
0.081228 -0.249998 0.425327 0.162450 -0.499985 0.850642
-0.026395 -0.344092 0.361806 -0.059206 -0.683493 0.727531
-0.131434 -0.404506 0.262869 -0.262856 -0.808985 0.525712
0.014820 -0.432092 0.251151 0.019807 -0.863552 0.503800
0.180900 -0.131431 0.447215 0.368175 -0.267495 0.890408
0.223605 -0.262864 0.361806 0.449629 -0.518143 0.727531
0.319097 -0.131432 0.361805 0.631733 -0.267495 0.727531
0.344095 -0.249998 0.262868 0.688162 -0.499985 0.525712
0.415525 -0.119427 0.251149 0.827448 -0.247963 0.503800
0.478313 0.073809 0.125575 0.957823 0.153264 0.243049
0.475529 0.154506 0.000000 0.951048 0.309000 0.000000
0.430902 0.212661 0.138198 0.859310 0.432844 0.272408
0.404510 0.293891 0.000000 0.808985 0.587756 0.008850
0.335410 0.344095 0.138199 0.677206 0.683493 0.272408
0.293893 0.404508 0.000000 0.587756 0.809015 0.000000
0.218003 0.432094 0.125576 0.441725 0.863582 0.243049
0.077608 0.477711 0.125576 0.150212 0.958281 0.243049
0.000000 0.500000 0.000000 0.000000 1.000000 0.000000
-0.069099 0.475528 0.138199 -0.146123 0.950987 0.272408
-0.154508 0.475528 0.000000 -0.309000 0.951018 0.008850
-0.223608 0.425324 0.138199 -0.440748 0.855251 0.272408
-0.293893 0.404508 0.000000 -0.587756 0.809015 0.000000
-0.343579 0.340858 0.125576 -0.684805 0.686972 0.243049
-0.430349 0.221429 0.125575 -0.864986 0.438978 0.243049
-0.475529 0.154506 0.000000 -0.951048 0.309000 0.000000
-0.473607 0.081229 0.138198 -0.949614 0.154881 0.272408
-0.500000 0.000000 0.000000 -0.999939 0.000000 0.008850
-0.473606 -0.081229 0.138198 -0.949614 -0.154881 0.272408
-0.475529 -0.154506 0.000000 -0.951048 -0.309000 0.000000
-0.430349 -0.221429 0.125575 -0.864986 -0.438978 0.243049
-0.343579 -0.340858 0.125576 -0.684805 -0.686972 0.243049
-0.293893 -0.404508 0.000000 -0.587756 -0.809015 0.000000
-0.223608 -0.425324 0.138198 -0.440779 -0.855251 0.272408
-0.154509 -0.475528 0.000000 -0.309000 -0.951018 0.008850
-0.069100 -0.475528 0.138198 -0.146123 -0.951018 0.272408
0.000000 -0.500000 0.000000 0.000000 -1.000000 0.000000
0.077608 -0.477711 0.125576 0.150212 -0.958281 0.243049
0.218003 -0.432094 0.125576 0.441725 -0.863582 0.243049
0.293893 -0.404508 0.000000 0.587786 -0.809015 0.000000
0.335410 -0.344095 0.138198 0.677206 -0.683493 0.272408
0.404509 -0.293891 -0.000001 0.808985 -0.587756 0.008850
0.430902 -0.212662 0.138197 0.859310 -0.432844 0.272408
0.475529 -0.154506 0.000000 0.951048 -0.309000 0.000000
0.478313 -0.073809 0.125575 0.957823 -0.153264 0.243049
0.154509 0.475528 0.000000 0.309000 0.951018 -0.008850
0.223608 0.425324 -0.138199 0.440748 0.855251 -0.272408
0.069100 0.475527 -0.138199 0.146123 0.950987 -0.272408
0.131434 0.404506 -0.262869 0.262856 0.808985 -0.525712
-0.014820 0.432092 -0.251151 -0.019807 0.863552 -0.503800
-0.404509 0.293892 0.000000 -0.808985 0.587756 -0.008850
-0.335409 0.344095 -0.138199 -0.677206 0.683493 -0.272408
-0.430902 0.212662 -0.138198 -0.859310 0.432844 -0.272408
-0.344095 0.249998 -0.262868 -0.688162 0.499985 -0.525712
-0.415525 0.119427 -0.251149 -0.827418 0.247963 -0.503800
-0.404509 -0.293892 0.000000 -0.808985 -0.587756 -0.008850
-0.430902 -0.212662 -0.138198 -0.859310 -0.432844 -0.272408
-0.335410 -0.344095 -0.138199 -0.677206 -0.683493 -0.272408
-0.344095 -0.249998 -0.262868 -0.688162 -0.499985 -0.525712
-0.241986 -0.358282 -0.251151 -0.491531 -0.710288 -0.503800
0.154509 -0.475528 0.000000 0.309000 -0.951018 -0.008850
0.069100 -0.475527 -0.138199 0.146123 -0.950987 -0.272408
0.223608 -0.425324 -0.138199 0.440748 -0.855251 -0.272408
0.131434 -0.404506 -0.262869 0.262856 -0.808985 -0.525712
0.265970 -0.340856 -0.251151 0.523637 -0.686972 -0.503800
0.500000 0.000000 0.000000 0.999939 0.000000 -0.008850
0.473607 -0.081229 -0.138198 0.949614 -0.154881 -0.272408
0.473607 0.081229 -0.138198 0.949614 0.154881 -0.272408
0.425324 0.000000 -0.262868 0.850642 0.000000 -0.525712
0.406365 0.147619 -0.251150 0.815180 0.285714 -0.503800
0.304773 0.221428 -0.328759 0.604205 0.438978 -0.664968
0.212661 0.154506 -0.425327 0.425306 0.309000 -0.850642
0.180902 0.293890 -0.361806 0.353832 0.587756 -0.727531
0.069098 0.212661 -0.447215 0.140629 0.432844 -0.890408
0.026395 0.344093 -0.361805 0.059206 0.683493 -0.727531
-0.081228 0.249998 -0.425327 -0.162450 0.499985 -0.850642
-0.116411 0.358282 -0.328760 -0.230781 0.710288 -0.664968
-0.223605 0.262864 -0.361806 -0.449629 0.518143 -0.727531
-0.180901 0.131431 -0.447214 -0.368206 0.267495 -0.890408
-0.319097 0.131431 -0.361805 -0.631733 0.267495 -0.727531
-0.262865 0.000000 -0.425326 -0.525712 0.000000 -0.850642
-0.319097 -0.131432 -0.361805 -0.631733 -0.267495 -0.727531
-0.180901 -0.131432 -0.447214 -0.368206 -0.267495 -0.890408
-0.223605 -0.262864 -0.361805 -0.449629 -0.518143 -0.727531
-0.081228 -0.249998 -0.425327 -0.162450 -0.499985 -0.850642
-0.116411 -0.358282 -0.328760 -0.230781 -0.710288 -0.664968
0.335409 0.081228 -0.361805 0.668325 0.154881 -0.727531
0.335409 -0.081229 -0.361805 0.668325 -0.154881 -0.727531
0.223605 0.000000 -0.447214 0.455123 0.000000 -0.890408
0.212661 -0.154506 -0.425327 0.425306 -0.309000 -0.850642
0.026395 -0.344093 -0.361806 0.059206 -0.683493 -0.727531
0.069099 -0.212660 -0.447215 0.140629 -0.432844 -0.890408
0.180902 -0.293890 -0.361805 0.353832 -0.587756 -0.727531
3 0 1 2
3 3 4 5
3 6 7 8
3 3 5 9
3 3 9 10
3 3 10 11
3 6 8 12
3 13 14 15
3 2 1 16
3 17 18 19
3 20 21 22
3 6 12 23
3 13 15 24
3 2 16 25
3 17 19 26
3 20 22 27
3 28 29 30
3 31 32 33
3 34 35 36
3 37 38 39
3 40 41 42
3 43 44 45
3 46 47 43
3 42 48 46
3 43 47 44
3 47 49 44
3 46 48 47
3 48 50 47
3 47 50 49
3 50 39 49
3 42 41 48
3 41 51 48
3 48 51 50
3 51 52 50
3 50 52 39
3 52 37 39
3 44 53 45
3 49 54 44
3 39 55 49
3 44 54 53
3 54 56 53
3 49 55 54
3 55 57 54
3 54 57 56
3 57 36 56
3 39 38 55
3 38 58 55
3 55 58 57
3 58 59 57
3 57 59 36
3 59 34 36
3 53 60 45
3 56 61 53
3 36 62 56
3 53 61 60
3 61 63 60
3 56 62 61
3 62 64 61
3 61 64 63
3 64 33 63
3 36 35 62
3 35 65 62
3 62 65 64
3 65 66 64
3 64 66 33
3 66 31 33
3 60 67 45
3 63 68 60
3 33 69 63
3 60 68 67
3 68 70 67
3 63 69 68
3 69 71 68
3 68 71 70
3 71 30 70
3 33 32 69
3 32 72 69
3 69 72 71
3 72 73 71
3 71 73 30
3 73 28 30
3 67 43 45
3 70 74 67
3 30 75 70
3 67 74 43
3 74 46 43
3 70 75 74
3 75 76 74
3 74 76 46
3 76 42 46
3 30 29 75
3 29 77 75
3 75 77 76
3 77 78 76
3 76 78 42
3 78 40 42
3 79 41 40
3 80 81 79
3 27 82 80
3 79 81 41
3 81 51 41
3 80 82 81
3 82 83 81
3 81 83 51
3 83 52 51
3 27 22 82
3 22 84 82
3 82 84 83
3 84 85 83
3 83 85 52
3 85 37 52
3 86 38 37
3 87 88 86
3 26 89 87
3 86 88 38
3 88 58 38
3 87 89 88
3 89 90 88
3 88 90 58
3 90 59 58
3 26 19 89
3 19 91 89
3 89 91 90
3 91 92 90
3 90 92 59
3 92 34 59
3 93 35 34
3 94 95 93
3 25 96 94
3 93 95 35
3 95 65 35
3 94 96 95
3 96 97 95
3 95 97 65
3 97 66 65
3 25 16 96
3 16 98 96
3 96 98 97
3 98 99 97
3 97 99 66
3 99 31 66
3 100 32 31
3 101 102 100
3 24 103 101
3 100 102 32
3 102 72 32
3 101 103 102
3 103 104 102
3 102 104 72
3 104 73 72
3 24 15 103
3 15 105 103
3 103 105 104
3 105 106 104
3 104 106 73
3 106 28 73
3 107 29 28
3 108 109 107
3 23 110 108
3 107 109 29
3 109 77 29
3 108 110 109
3 110 111 109
3 109 111 77
3 111 78 77
3 23 12 110
3 12 112 110
3 110 112 111
3 112 113 111
3 111 113 78
3 113 40 78
3 85 86 37
3 84 114 85
3 22 115 84
3 85 114 86
3 114 87 86
3 84 115 114
3 115 116 114
3 114 116 87
3 116 26 87
3 22 21 115
3 21 117 115
3 115 117 116
3 117 118 116
3 116 118 26
3 118 17 26
3 92 93 34
3 91 119 92
3 19 120 91
3 92 119 93
3 119 94 93
3 91 120 119
3 120 121 119
3 119 121 94
3 121 25 94
3 19 18 120
3 18 122 120
3 120 122 121
3 122 123 121
3 121 123 25
3 123 2 25
3 99 100 31
3 98 124 99
3 16 125 98
3 99 124 100
3 124 101 100
3 98 125 124
3 125 126 124
3 124 126 101
3 126 24 101
3 16 1 125
3 1 127 125
3 125 127 126
3 127 128 126
3 126 128 24
3 128 13 24
3 106 107 28
3 105 129 106
3 15 130 105
3 106 129 107
3 129 108 107
3 105 130 129
3 130 131 129
3 129 131 108
3 131 23 108
3 15 14 130
3 14 132 130
3 130 132 131
3 132 133 131
3 131 133 23
3 133 6 23
3 113 79 40
3 112 134 113
3 12 135 112
3 113 134 79
3 134 80 79
3 112 135 134
3 135 136 134
3 134 136 80
3 136 27 80
3 12 8 135
3 8 137 135
3 135 137 136
3 137 138 136
3 136 138 27
3 138 20 27
3 139 21 20
3 140 141 139
3 11 142 140
3 139 141 21
3 141 117 21
3 140 142 141
3 142 143 141
3 141 143 117
3 143 118 117
3 11 10 142
3 10 144 142
3 142 144 143
3 144 145 143
3 143 145 118
3 145 17 118
3 145 18 17
3 144 146 145
3 10 147 144
3 145 146 18
3 146 122 18
3 144 147 146
3 147 148 146
3 146 148 122
3 148 123 122
3 10 9 147
3 9 149 147
3 147 149 148
3 149 0 148
3 148 0 123
3 0 2 123
3 149 150 0
3 9 151 149
3 0 150 1
3 150 127 1
3 149 151 150
3 151 152 150
3 150 152 127
3 152 128 127
3 9 5 151
3 5 153 151
3 151 153 152
3 153 154 152
3 152 154 128
3 154 13 128
3 138 139 20
3 137 155 138
3 8 156 137
3 138 155 139
3 155 140 139
3 137 156 155
3 156 157 155
3 155 157 140
3 157 11 140
3 8 7 156
3 7 158 156
3 156 158 157
3 158 4 157
3 157 4 11
3 4 3 11
3 154 14 13
3 153 159 154
3 5 160 153
3 154 159 14
3 159 132 14
3 153 160 159
3 160 161 159
3 159 161 132
3 161 133 132
3 5 4 160
3 4 158 160
3 160 158 161
3 158 7 161
3 161 7 133
3 7 6 133
