ply
format ascii 1.0
comment Created by Blender 2.71 (sub 0) - www.blender.org, source file: 'Island lp.blend'
element vertex 554
property float x
property float y
property float z
property float nx
property float ny
property float nz
element face 248
property list uchar uint vertex_indices
end_header
0.158812 -0.000000 1.148732 0.036509 -0.091574 -0.995129
0.492383 -0.297363 1.188334 0.036509 -0.091574 -0.995129
0.031402 -0.481147 1.188334 0.036509 -0.091574 -0.995129
0.941359 -0.402149 1.433148 0.408245 -0.280431 -0.868731
0.492383 -0.297363 1.188334 0.408245 -0.280431 -0.868731
1.040994 0.103757 1.316660 0.408245 -0.280431 -0.868731
0.158812 -0.000000 1.148732 -0.133726 -0.046068 -0.989947
0.031402 -0.481147 1.188334 -0.133726 -0.046068 -0.989947
-0.253506 0.345863 1.188334 -0.133726 -0.046068 -0.989947
0.158812 -0.000000 1.148732 -0.034606 0.072875 -0.996741
-0.253506 0.345863 1.188334 -0.034606 0.072875 -0.996741
0.031402 0.481146 1.188334 -0.034606 0.072875 -0.996741
0.158812 -0.000000 1.148732 0.036509 0.091574 -0.995129
0.031402 0.481146 1.188334 0.036509 0.091574 -0.995129
0.492383 0.297362 1.188334 0.036509 0.091574 -0.995129
0.941359 -0.402149 1.433148 0.969211 -0.217470 -0.115481
1.040994 0.103757 1.316660 0.969211 -0.217470 -0.115481
1.076498 -0.175262 2.140080 0.969211 -0.217470 -0.115481
-0.057953 -0.818582 1.737053 0.051582 -0.912511 -0.405787
0.364974 -0.778514 1.700710 0.051582 -0.912511 -0.405787
0.158812 -0.962302 2.087797 0.051582 -0.912511 -0.405787
-0.899141 0.011702 1.493470 -0.946757 -0.176320 -0.269376
-0.737394 -0.469446 1.239925 -0.946757 -0.176320 -0.269376
-0.943556 -0.285661 1.844212 -0.946757 -0.176320 -0.269376
-0.057953 0.818581 1.737053 -0.251516 0.965680 -0.064827
-0.380919 0.730329 1.675474 -0.251516 0.965680 -0.064827
-0.302175 0.778518 2.087797 -0.251516 0.965680 -0.064827
0.726321 0.505906 1.737053 0.598861 0.710197 -0.370116
0.364974 0.778513 1.675473 0.598861 0.710197 -0.370116
0.619799 0.778518 2.087797 0.598861 0.710197 -0.370116
0.941359 -0.402149 1.433148 0.860466 -0.509508 -0.000964
1.076498 -0.175262 2.140080 0.860466 -0.509508 -0.000964
0.906636 -0.462128 2.140080 0.860466 -0.509508 -0.000964
-0.057953 -0.818582 1.737053 -0.135332 -0.943361 -0.302912
0.158812 -0.962302 2.087797 -0.135332 -0.943361 -0.302912
-0.658650 -0.766816 1.844212 -0.135332 -0.943361 -0.302912
-0.899141 0.011702 1.493470 -0.992077 -0.000000 -0.125628
-0.943556 -0.285661 1.844212 -0.992077 -0.000000 -0.125628
-0.943556 0.309066 1.844212 -0.992077 -0.000000 -0.125628
-0.057953 0.818581 1.737053 -0.366136 0.918386 -0.150039
-0.302175 0.778518 2.087797 -0.366136 0.918386 -0.150039
0.158812 0.962301 2.087797 -0.366136 0.918386 -0.150039
0.726321 0.505906 1.737053 0.786012 0.580541 -0.212504
0.619799 0.778518 2.087797 0.786012 0.580541 -0.212504
1.076498 0.179317 2.140080 0.786012 0.580541 -0.212504
0.375577 -0.818582 2.438542 0.338607 -0.594333 0.729461
0.953584 -0.284835 2.605112 0.338607 -0.594333 0.729461
0.286222 -0.481147 2.754946 0.338607 -0.594333 0.729461
-0.765172 -0.494204 2.194956 -0.500752 -0.504945 0.703049
-0.403825 -0.766811 2.256536 -0.500752 -0.504945 0.703049
-0.531234 -0.285660 2.511361 -0.500752 -0.504945 0.703049
-0.408697 0.505906 2.438541 -0.638865 0.334472 0.692806
-0.864807 0.011702 2.256535 -0.638865 0.334472 0.692806
-0.174759 0.297362 2.754946 -0.638865 0.334472 0.692806
0.375577 0.818581 2.438542 0.042766 0.677334 0.734432
-0.047350 0.778513 2.500121 0.042766 0.677334 0.734432
0.286222 0.481146 2.754946 0.042766 0.677334 0.734432
1.050018 0.002028 2.535658 0.388997 0.348610 0.852732
0.698544 0.481147 2.500120 0.388997 0.348610 0.852732
0.571130 -0.000000 2.754944 0.388997 0.348610 0.852732
0.031402 -0.481147 1.188334 0.036283 -0.853888 -0.519190
0.364974 -0.778514 1.700710 0.036283 -0.853888 -0.519190
-0.057953 -0.818582 1.737053 0.036283 -0.853888 -0.519190
0.031402 -0.481147 1.188334 0.291981 -0.732367 -0.615131
0.492383 -0.297363 1.188334 0.291981 -0.732367 -0.615131
0.364974 -0.778514 1.700710 0.291981 -0.732367 -0.615131
0.492383 -0.297363 1.188334 0.181333 -0.738986 -0.648860
0.941359 -0.402149 1.433148 0.181333 -0.738986 -0.648860
0.364974 -0.778514 1.700710 0.181333 -0.738986 -0.648860
1.040994 0.103757 1.316660 0.389417 0.793534 -0.467609
0.492383 0.297362 1.188334 0.389417 0.793534 -0.467609
0.726321 0.505906 1.737053 0.389417 0.793534 -0.467609
1.040994 0.103757 1.316660 0.227763 0.000000 -0.973717
0.492383 -0.297363 1.188334 0.227763 0.000000 -0.973717
0.492383 0.297362 1.188334 0.227763 0.000000 -0.973717
0.492383 -0.297363 1.188334 0.117893 0.000000 -0.993026
0.158812 -0.000000 1.148732 0.117893 0.000000 -0.993026
0.492383 0.297362 1.188334 0.117893 0.000000 -0.993026
-0.253506 0.345863 1.188334 -0.518145 0.255879 -0.816120
-0.737394 -0.469446 1.239925 -0.518145 0.255879 -0.816120
-0.899141 0.011702 1.493470 -0.518145 0.255879 -0.816120
-0.253506 0.345863 1.188334 -0.067289 -0.023181 -0.997464
0.031402 -0.481147 1.188334 -0.067289 -0.023181 -0.997464
-0.737394 -0.469446 1.239925 -0.067289 -0.023181 -0.997464
0.031402 -0.481147 1.188334 -0.048390 -0.847290 -0.528921
-0.057953 -0.818582 1.737053 -0.048390 -0.847290 -0.528921
-0.737394 -0.469446 1.239925 -0.048390 -0.847290 -0.528921
0.031402 0.481146 1.188334 -0.126441 0.835667 -0.534484
-0.380919 0.730329 1.675474 -0.126441 0.835667 -0.534484
-0.057953 0.818581 1.737053 -0.126441 0.835667 -0.534484
0.031402 0.481146 1.188334 -0.330846 0.696765 -0.636443
-0.253506 0.345863 1.188334 -0.330846 0.696765 -0.636443
-0.380919 0.730329 1.675474 -0.330846 0.696765 -0.636443
-0.253506 0.345863 1.188334 -0.572947 0.563821 -0.594842
-0.899141 0.011702 1.493470 -0.572947 0.563821 -0.594842
-0.380919 0.730329 1.675474 -0.572947 0.563821 -0.594842
0.492383 0.297362 1.188334 0.575893 0.651928 -0.493292
0.364974 0.778513 1.675473 0.575893 0.651928 -0.493292
0.726321 0.505906 1.737053 0.575893 0.651928 -0.493292
0.492383 0.297362 1.188334 0.286280 0.718068 -0.634367
0.031402 0.481146 1.188334 0.286280 0.718068 -0.634367
0.364974 0.778513 1.675473 0.286280 0.718068 -0.634367
0.031402 0.481146 1.188334 0.004539 0.852144 -0.523287
-0.057953 0.818581 1.737053 0.004539 0.852144 -0.523287
0.364974 0.778513 1.675473 0.004539 0.852144 -0.523287
1.076498 -0.175262 2.140080 0.997767 0.000000 0.066791
1.076498 0.179317 2.140080 0.997767 0.000000 0.066791
1.050018 0.002028 2.535658 0.997767 0.000000 0.066791
1.076498 -0.175262 2.140080 0.999072 0.000000 -0.043078
1.040994 0.103757 1.316660 0.999072 0.000000 -0.043078
1.076498 0.179317 2.140080 0.999072 0.000000 -0.043078
1.040994 0.103757 1.316660 0.734413 0.672252 -0.093355
0.726321 0.505906 1.737053 0.734413 0.672252 -0.093355
1.076498 0.179317 2.140080 0.734413 0.672252 -0.093355
0.158812 -0.962302 2.087797 0.556098 -0.831111 -0.003122
0.906636 -0.462128 2.140080 0.556098 -0.831111 -0.003122
0.375577 -0.818582 2.438542 0.556098 -0.831111 -0.003122
0.158812 -0.962302 2.087797 0.558019 -0.824458 -0.094251
0.364974 -0.778514 1.700710 0.558019 -0.824458 -0.094251
0.906636 -0.462128 2.140080 0.558019 -0.824458 -0.094251
0.364974 -0.778514 1.700710 0.531212 -0.846006 -0.045687
0.941359 -0.402149 1.433148 0.531212 -0.846006 -0.045687
0.906636 -0.462128 2.140080 0.531212 -0.846006 -0.045687
-0.943556 -0.285661 1.844212 -0.852766 -0.504949 0.133478
-0.658650 -0.766816 1.844212 -0.852766 -0.504949 0.133478
-0.765172 -0.494204 2.194956 -0.852766 -0.504949 0.133478
-0.943556 -0.285661 1.844212 -0.852318 -0.504683 -0.137290
-0.737394 -0.469446 1.239925 -0.852318 -0.504683 -0.137290
-0.658650 -0.766816 1.844212 -0.852318 -0.504683 -0.137290
-0.737394 -0.469446 1.239925 -0.152077 -0.894515 -0.420375
-0.057953 -0.818582 1.737053 -0.152077 -0.894515 -0.420375
-0.658650 -0.766816 1.844212 -0.152077 -0.894515 -0.420375
-0.302175 0.778518 2.087797 -0.636146 0.690785 0.343705
-0.943556 0.309066 1.844212 -0.636146 0.690785 0.343705
-0.408697 0.505906 2.438541 -0.636146 0.690785 0.343705
-0.302175 0.778518 2.087797 -0.595412 0.803176 0.019842
-0.380919 0.730329 1.675474 -0.595412 0.803176 0.019842
-0.943556 0.309066 1.844212 -0.595412 0.803176 0.019842
-0.380919 0.730329 1.675474 -0.597271 0.572873 -0.561323
-0.899141 0.011702 1.493470 -0.597271 0.572873 -0.561323
-0.943556 0.309066 1.844212 -0.597271 0.572873 -0.561323
0.619799 0.778518 2.087797 0.366136 0.918386 0.150039
0.158812 0.962301 2.087797 0.366136 0.918386 0.150039
0.375577 0.818581 2.438542 0.366136 0.918386 0.150039
0.619799 0.778518 2.087797 0.360993 0.905486 -0.223112
0.364974 0.778513 1.675473 0.360993 0.905486 -0.223112
0.158812 0.962301 2.087797 0.360993 0.905486 -0.223112
0.364974 0.778513 1.675473 0.029555 0.918386 -0.394581
-0.057953 0.818581 1.737053 0.029555 0.918386 -0.394581
0.158812 0.962301 2.087797 0.029555 0.918386 -0.394581
0.906636 -0.462128 2.140080 0.626278 -0.747405 0.221722
0.953584 -0.284835 2.605112 0.626278 -0.747405 0.221722
0.375577 -0.818582 2.438542 0.626278 -0.747405 0.221722
0.906636 -0.462128 2.140080 0.855548 -0.506596 0.106767
1.076498 -0.175262 2.140080 0.855548 -0.506596 0.106767
0.953584 -0.284835 2.605112 0.855548 -0.506596 0.106767
1.076498 -0.175262 2.140080 0.944132 -0.272515 0.185337
1.050018 0.002028 2.535658 0.944132 -0.272515 0.185337
0.953584 -0.284835 2.605112 0.944132 -0.272515 0.185337
-0.658650 -0.766816 1.844212 -0.598860 -0.710197 0.370117
-0.403825 -0.766811 2.256536 -0.598860 -0.710197 0.370117
-0.765172 -0.494204 2.194956 -0.598860 -0.710197 0.370117
-0.658650 -0.766816 1.844212 -0.277130 -0.945442 0.171283
0.158812 -0.962302 2.087797 -0.277130 -0.945442 0.171283
-0.403825 -0.766811 2.256536 -0.277130 -0.945442 0.171283
0.158812 -0.962302 2.087797 -0.165307 -0.872555 0.459698
0.375577 -0.818582 2.438542 -0.165307 -0.872555 0.459698
-0.403825 -0.766811 2.256536 -0.165307 -0.872555 0.459698
-0.943556 0.309066 1.844212 -0.723214 0.487198 0.489489
-0.864807 0.011702 2.256535 -0.723214 0.487198 0.489489
-0.408697 0.505906 2.438541 -0.723214 0.487198 0.489489
-0.943556 0.309066 1.844212 -0.982246 0.000000 0.187598
-0.943556 -0.285661 1.844212 -0.982246 0.000000 0.187598
-0.864807 0.011702 2.256535 -0.982246 0.000000 0.187598
-0.943556 -0.285661 1.844212 -0.916106 -0.221129 0.334443
-0.765172 -0.494204 2.194956 -0.916106 -0.221129 0.334443
-0.864807 0.011702 2.256535 -0.916106 -0.221129 0.334443
0.158812 0.962301 2.087797 -0.029555 0.918386 0.394581
-0.047350 0.778513 2.500121 -0.029555 0.918386 0.394581
0.375577 0.818581 2.438542 -0.029555 0.918386 0.394581
0.158812 0.962301 2.087797 -0.360993 0.905486 0.223112
-0.302175 0.778518 2.087797 -0.360993 0.905486 0.223112
-0.047350 0.778513 2.500121 -0.360993 0.905486 0.223112
-0.302175 0.778518 2.087797 -0.598861 0.710197 0.370117
-0.408697 0.505906 2.438541 -0.598861 0.710197 0.370117
-0.047350 0.778513 2.500121 -0.598861 0.710197 0.370117
1.076498 0.179317 2.140080 0.755679 0.577297 0.309318
0.698544 0.481147 2.500120 0.755679 0.577297 0.309318
1.050018 0.002028 2.535658 0.755679 0.577297 0.309318
1.076498 0.179317 2.140080 0.749640 0.596400 0.286963
0.619799 0.778518 2.087797 0.749640 0.596400 0.286963
0.698544 0.481147 2.500120 0.749640 0.596400 0.286963
0.619799 0.778518 2.087797 0.637762 0.677339 0.366703
0.375577 0.818581 2.438542 0.637762 0.677339 0.366703
0.698544 0.481147 2.500120 0.637762 0.677339 0.366703
0.286222 -0.481147 2.754946 0.269757 -0.159731 0.949588
0.571130 -0.000000 2.754944 0.269757 -0.159731 0.949588
0.158812 -0.000000 2.872075 0.269757 -0.159731 0.949588
0.286222 -0.481147 2.754946 0.259241 -0.153504 0.953536
0.953584 -0.284835 2.605112 0.259241 -0.153504 0.953536
0.571130 -0.000000 2.754944 0.259241 -0.153504 0.953536
0.953584 -0.284835 2.605112 0.414719 0.080044 0.906422
1.050018 0.002028 2.535658 0.414719 0.080044 0.906422
0.571130 -0.000000 2.754944 0.414719 0.080044 0.906422
-0.531234 -0.285660 2.511361 -0.338370 -0.306212 0.889798
0.286222 -0.481147 2.754946 -0.338370 -0.306212 0.889798
0.158812 -0.000000 2.872075 -0.338370 -0.306212 0.889798
-0.531234 -0.285660 2.511361 -0.355348 -0.509232 0.783844
-0.403825 -0.766811 2.256536 -0.355348 -0.509232 0.783844
0.286222 -0.481147 2.754946 -0.355348 -0.509232 0.783844
-0.403825 -0.766811 2.256536 -0.206515 -0.697808 0.685868
0.375577 -0.818582 2.438542 -0.206515 -0.697808 0.685868
0.286222 -0.481147 2.754946 -0.206515 -0.697808 0.685868
-0.174759 0.297362 2.754946 -0.421142 -0.118211 0.899258
-0.531234 -0.285660 2.511361 -0.421142 -0.118211 0.899258
0.158812 -0.000000 2.872075 -0.421142 -0.118211 0.899258
-0.174759 0.297362 2.754946 -0.592298 0.025690 0.805309
-0.864807 0.011702 2.256535 -0.592298 0.025690 0.805309
-0.531234 -0.285660 2.511361 -0.592298 0.025690 0.805309
-0.864807 0.011702 2.256535 -0.708825 -0.221130 0.669827
-0.765172 -0.494204 2.194956 -0.708825 -0.221130 0.669827
-0.531234 -0.285660 2.511361 -0.708825 -0.221130 0.669827
0.286222 0.481146 2.754946 -0.104132 0.261190 0.959654
-0.174759 0.297362 2.754946 -0.104132 0.261190 0.959654
0.158812 -0.000000 2.872075 -0.104132 0.261190 0.959654
0.286222 0.481146 2.754946 -0.199065 0.499308 0.843247
-0.047350 0.778513 2.500121 -0.199065 0.499308 0.843247
-0.174759 0.297362 2.754946 -0.199065 0.499308 0.843247
-0.047350 0.778513 2.500121 -0.500752 0.504944 0.703049
-0.408697 0.505906 2.438541 -0.500752 0.504944 0.703049
-0.174759 0.297362 2.754946 -0.500752 0.504944 0.703049
0.571130 -0.000000 2.754944 0.269757 0.159731 0.949588
0.286222 0.481146 2.754946 0.269757 0.159731 0.949588
0.158812 -0.000000 2.872075 0.269757 0.159731 0.949588
0.571130 -0.000000 2.754944 0.501966 0.297233 0.812209
0.698544 0.481147 2.500120 0.501966 0.297233 0.812209
0.286222 0.481146 2.754946 0.501966 0.297233 0.812209
0.698544 0.481147 2.500120 0.439093 0.549924 0.710479
0.375577 0.818581 2.438542 0.439093 0.549924 0.710479
0.286222 0.481146 2.754946 0.439093 0.549924 0.710479
0.672840 -0.000000 1.537772 0.780132 0.323141 -0.535699
0.290921 0.136499 1.063926 0.780132 0.323141 -0.535699
0.636689 0.087275 1.537772 0.780132 0.323141 -0.535699
0.290921 -0.136499 1.063926 0.780132 -0.323141 -0.535699
0.672840 -0.000000 1.537772 0.780132 -0.323141 -0.535699
0.636689 -0.087275 1.537772 0.780132 -0.323141 -0.535699
0.154422 -0.193039 1.063926 0.376414 -0.908744 -0.180269
0.636689 -0.087275 1.537772 0.376414 -0.908744 -0.180269
0.549415 -0.123425 1.537772 0.376414 -0.908744 -0.180269
0.017923 -0.136499 1.063926 -0.348358 -0.841010 0.413943
0.549415 -0.123425 1.537772 -0.348358 -0.841010 0.413943
0.462140 -0.087275 1.537772 -0.348358 -0.841010 0.413943
-0.038617 0.000000 1.063926 -0.684713 -0.283617 0.671363
0.462140 -0.087275 1.537772 -0.684713 -0.283617 0.671363
0.425990 0.000000 1.537772 -0.684713 -0.283617 0.671363
0.106631 0.032462 2.351462 -0.380593 0.918832 -0.104389
0.549415 0.123425 1.537772 -0.380593 0.918832 -0.104389
0.462140 0.087275 1.537772 -0.380593 0.918832 -0.104389
0.549415 0.123425 1.537772 -0.348358 0.841010 0.413943
0.017923 0.136499 1.063926 -0.348358 0.841010 0.413943
0.462140 0.087275 1.537772 -0.348358 0.841010 0.413943
0.462140 0.087275 1.537772 -0.684713 0.283618 0.671363
-0.038617 0.000000 1.063926 -0.684713 0.283618 0.671363
0.425990 0.000000 1.537772 -0.684713 0.283618 0.671363
-0.260818 0.260818 0.017898 0.000000 0.000000 -1.000000
0.260818 -0.260818 0.017898 0.000000 0.000000 -1.000000
-0.260818 -0.260818 0.017898 0.000000 0.000000 -1.000000
-0.368852 0.000000 0.017898 0.000000 -0.000000 -1.000000
0.264316 -0.000000 0.448288 0.919774 0.380983 0.094163
0.155743 0.155743 0.878677 0.919774 0.380983 0.094163
0.220254 -0.000000 0.878677 0.919774 0.380983 0.094163
0.186900 -0.186900 0.448288 0.919774 -0.380983 0.094163
0.220254 -0.000000 0.878677 0.919774 -0.380983 0.094163
0.155743 -0.155743 0.878677 0.919774 -0.380983 0.094163
-0.000000 -0.264316 0.448288 0.380983 -0.919774 0.094163
0.155743 -0.155743 0.878677 0.380983 -0.919774 0.094163
-0.000000 -0.220255 0.878677 0.380983 -0.919774 0.094163
-0.186900 -0.186900 0.448288 -0.380983 -0.919774 0.094163
-0.000000 -0.220255 0.878677 -0.380983 -0.919774 0.094163
-0.155743 -0.155743 0.878677 -0.380983 -0.919774 0.094163
-0.264316 0.000000 0.448288 -0.919774 -0.380983 0.094163
-0.155743 -0.155743 0.878677 -0.919774 -0.380983 0.094163
-0.220255 -0.000000 0.878677 -0.919774 -0.380983 0.094163
-0.186900 0.186900 0.448288 -0.380983 0.919774 0.094163
-0.000000 0.220255 0.878677 -0.380983 0.919774 0.094163
-0.000000 0.264316 0.448288 -0.380983 0.919774 0.094163
-0.186900 0.186900 0.448288 -0.919774 0.380983 0.094163
-0.220255 -0.000000 0.878677 -0.919774 0.380983 0.094163
-0.155743 0.155743 0.878677 -0.919774 0.380983 0.094163
0.093184 0.000000 2.351462 0.000000 0.000000 1.000000
0.171554 0.032462 2.351462 0.000000 0.000000 1.000000
0.139092 0.045908 2.351462 0.000000 0.000000 1.000000
0.139092 -0.045908 2.351462 0.000000 0.000000 1.000000
0.171554 -0.032462 2.351462 0.000000 0.000000 1.000000
0.185000 -0.000000 2.351462 0.000000 0.000000 1.000000
0.093184 0.000000 2.351462 -0.864236 -0.357979 -0.353479
0.462140 -0.087275 1.537772 -0.864236 -0.357979 -0.353479
0.106631 -0.032462 2.351462 -0.864236 -0.357979 -0.353479
0.106631 -0.032462 2.351462 -0.380593 -0.918832 -0.104389
0.549415 -0.123425 1.537772 -0.380593 -0.918832 -0.104389
0.139092 -0.045908 2.351462 -0.380593 -0.918832 -0.104389
0.139092 -0.045908 2.351462 0.368415 -0.889433 0.270515
0.636689 -0.087275 1.537772 0.368415 -0.889433 0.270515
0.171554 -0.032462 2.351462 0.368415 -0.889433 0.270515
0.171554 -0.032462 2.351462 0.808182 -0.334761 0.484538
0.672840 -0.000000 1.537772 0.808182 -0.334761 0.484538
0.185000 -0.000000 2.351462 0.808182 -0.334761 0.484538
0.171554 0.032462 2.351462 0.808182 0.334760 0.484538
0.672840 -0.000000 1.537772 0.808182 0.334760 0.484538
0.636689 0.087275 1.537772 0.808182 0.334760 0.484538
0.139092 0.045908 2.351462 0.368415 0.889433 0.270515
0.636689 0.087275 1.537772 0.368415 0.889433 0.270515
0.549415 0.123425 1.537772 0.368415 0.889433 0.270515
0.260818 0.260818 0.017898 0.373398 0.901462 0.218953
-0.000000 0.264316 0.448288 0.373398 0.901462 0.218953
0.186900 0.186900 0.448288 0.373398 0.901462 0.218953
0.264316 -0.000000 0.448288 0.901462 0.373398 0.218953
0.260818 0.260818 0.017898 0.901462 0.373398 0.218953
0.186900 0.186900 0.448288 0.901462 0.373398 0.218953
0.186900 -0.186900 0.448288 0.901462 -0.373398 0.218953
0.368852 -0.000000 0.017898 0.901462 -0.373398 0.218953
0.264316 -0.000000 0.448288 0.901462 -0.373398 0.218953
-0.000000 -0.368852 0.017898 0.373398 -0.901462 0.218953
0.186900 -0.186900 0.448288 0.373398 -0.901462 0.218953
-0.000000 -0.264316 0.448288 0.373398 -0.901462 0.218953
-0.186900 -0.186900 0.448288 -0.373398 -0.901462 0.218953
-0.000000 -0.368852 0.017898 -0.373398 -0.901462 0.218953
-0.000000 -0.264316 0.448288 -0.373398 -0.901462 0.218953
-0.368852 0.000000 0.017898 -0.901462 -0.373398 0.218953
-0.186900 -0.186900 0.448288 -0.901462 -0.373398 0.218953
-0.264316 0.000000 0.448288 -0.901462 -0.373398 0.218953
-0.000000 0.368852 0.017898 -0.373398 0.901462 0.218953
-0.186900 0.186900 0.448288 -0.373398 0.901462 0.218953
-0.000000 0.264316 0.448288 -0.373398 0.901462 0.218953
-0.260818 0.260818 0.017898 -0.901462 0.373398 0.218953
-0.264316 0.000000 0.448288 -0.901462 0.373398 0.218953
-0.186900 0.186900 0.448288 -0.901462 0.373398 0.218953
0.290921 0.136499 1.063926 0.376414 0.908744 -0.180269
-0.000000 0.220255 0.878677 0.376414 0.908744 -0.180269
0.154422 0.193039 1.063926 0.376414 0.908744 -0.180269
0.347461 -0.000000 1.063926 0.780132 0.323141 -0.535699
0.155743 0.155743 0.878677 0.780132 0.323141 -0.535699
0.155743 -0.155743 0.878677 0.780132 -0.323141 -0.535699
0.347461 -0.000000 1.063926 0.780132 -0.323141 -0.535699
-0.000000 -0.220255 0.878677 0.376414 -0.908744 -0.180269
0.290921 -0.136499 1.063926 0.376414 -0.908744 -0.180269
-0.155743 -0.155743 0.878677 -0.348358 -0.841010 0.413943
0.154422 -0.193039 1.063926 -0.348358 -0.841010 0.413943
-0.260959 0.000000 1.197452 0.613809 0.254248 0.747394
-0.090119 -0.076629 1.083215 0.613809 0.254248 0.747394
-0.121860 0.000000 1.083215 0.613809 0.254248 0.747394
0.154422 0.193039 1.063926 -0.348358 0.841010 0.413943
-0.155743 0.155743 0.878677 -0.348358 0.841010 0.413943
-0.260959 0.000000 1.197452 0.613809 -0.254248 0.747394
-0.090119 0.076629 1.083215 0.613809 -0.254248 0.747394
-0.238031 0.055353 1.197452 0.613809 -0.254248 0.747394
-0.224610 -0.066467 1.284617 0.938652 0.306814 -0.157474
-0.260959 0.000000 1.197452 0.938652 0.306814 -0.157474
-0.240384 -0.010600 1.299440 0.938652 0.306814 -0.157474
-0.038617 0.000000 1.063926 0.000000 0.000000 0.000000
0.017923 0.136499 1.063926 0.000000 0.000000 0.000000
-0.038617 0.000000 1.063926 0.000000 0.000000 0.000000
0.017923 -0.136499 1.063926 0.000000 0.000000 0.000000
0.017923 -0.136499 1.063926 0.000000 0.000000 0.000000
-0.155743 0.155743 0.878677 0.000000 0.000000 0.000000
-0.155743 0.155743 0.878677 0.000000 0.000000 0.000000
-0.155743 -0.155743 0.878677 0.000000 0.000000 0.000000
-0.220255 -0.000000 0.878677 0.000000 0.000000 0.000000
-0.220255 -0.000000 0.878677 0.000000 0.000000 0.000000
-0.155743 -0.155743 0.878677 0.000000 0.000000 0.000000
0.017923 0.136499 1.063926 0.000000 0.000000 0.000000
-0.038617 0.000000 1.063926 0.000000 0.000000 0.000000
0.017923 -0.136499 1.063926 0.000000 0.000000 0.000000
-0.155743 0.155743 0.878677 0.000000 0.000000 0.000000
-0.155743 -0.155743 0.878677 0.000000 0.000000 0.000000
-0.220255 -0.000000 0.878677 0.000000 0.000000 0.000000
0.017923 0.136499 1.063926 0.000000 0.000000 0.000000
-0.038617 0.000000 1.063926 0.000000 0.000000 0.000000
0.017923 -0.136499 1.063926 0.000000 0.000000 0.000000
-0.155743 0.155743 0.878677 0.000000 0.000000 0.000000
-0.155743 -0.155743 0.878677 0.000000 0.000000 0.000000
-0.220255 -0.000000 0.878677 0.000000 0.000000 0.000000
-0.258612 -0.001281 1.198330 0.549953 0.637794 -0.539231
-0.332269 -0.001281 1.123208 0.549953 0.637794 -0.539231
-0.334617 -0.000000 1.122330 0.549953 0.637794 -0.539231
-0.240384 -0.010600 1.299440 0.866742 -0.427698 -0.256581
-0.238031 0.055353 1.197452 0.866742 -0.427698 -0.256581
-0.215573 0.043552 1.292988 0.866742 -0.427698 -0.256581
-0.238031 0.055353 1.197452 -0.036521 0.989888 0.137070
-0.187613 0.087432 0.979218 -0.036521 0.989888 0.137070
-0.308456 0.063157 1.122330 -0.036521 0.989888 0.137070
-0.238031 -0.055353 1.197452 -0.036521 -0.989888 0.137070
-0.187613 -0.087432 0.979218 -0.036521 -0.989888 0.137070
-0.090119 -0.076629 1.083215 -0.036521 -0.989888 0.137070
-0.334617 -0.000000 1.122330 -0.751462 0.311266 -0.581737
-0.187613 0.087432 0.979218 -0.751462 0.311266 -0.581737
-0.223828 -0.000000 0.979218 -0.751462 0.311266 -0.581737
-0.334617 -0.000000 1.122330 -0.751462 -0.311266 -0.581737
-0.187613 -0.087432 0.979218 -0.751462 -0.311266 -0.581737
-0.308456 -0.063157 1.122330 -0.751462 -0.311266 -0.581737
-0.121860 0.000000 1.083215 0.224754 0.093096 0.969958
0.017923 -0.136499 1.063926 0.224754 0.093096 0.969958
-0.038617 0.000000 1.063926 0.224754 0.093096 0.969958
-0.121860 0.000000 1.083215 0.224754 -0.093096 0.969958
0.017923 0.136499 1.063926 0.224754 -0.093096 0.969958
-0.090119 0.076629 1.083215 0.224754 -0.093096 0.969958
-0.090119 0.076629 1.083215 -0.375157 0.817680 0.436643
-0.155743 0.155743 0.878677 -0.375157 0.817680 0.436643
-0.187613 0.087432 0.979218 -0.375157 0.817680 0.436643
-0.090119 -0.076629 1.083215 -0.375158 -0.817679 0.436643
-0.155743 -0.155743 0.878677 -0.375158 -0.817679 0.436643
0.017923 -0.136499 1.063926 -0.375158 -0.817679 0.436643
-0.223828 -0.000000 0.979218 -0.923382 0.382477 -0.032822
-0.155743 0.155743 0.878677 -0.923382 0.382477 -0.032822
-0.220255 -0.000000 0.878677 -0.923382 0.382477 -0.032822
-0.223828 -0.000000 0.979218 -0.923382 -0.382478 -0.032822
-0.155743 -0.155743 0.878677 -0.923382 -0.382478 -0.032822
-0.187613 -0.087432 0.979218 -0.923382 -0.382478 -0.032822
-0.340001 0.000028 1.267309 -0.321522 -0.326600 0.888795
-0.224610 -0.066467 1.284617 -0.321522 -0.326600 0.888795
-0.240384 -0.010600 1.299440 -0.321522 -0.326600 0.888795
-0.215573 0.043552 1.292988 -0.275218 0.237108 0.931684
-0.340001 0.000028 1.267309 -0.275218 0.237108 0.931684
-0.240384 -0.010600 1.299440 -0.275218 0.237108 0.931684
-0.340001 0.000028 1.267309 -0.923334 0.382457 -0.034363
-0.308456 0.063157 1.122330 -0.923334 0.382457 -0.034363
-0.334617 -0.000000 1.122330 -0.923334 0.382457 -0.034363
-0.308456 0.063157 1.122330 0.182032 0.983195 0.013873
-0.311691 0.061814 1.259947 0.182032 0.983195 0.013873
-0.215573 0.043552 1.292988 0.182032 0.983195 0.013873
-0.308456 -0.063157 1.122330 0.279407 -0.946124 -0.163650
-0.238031 -0.055353 1.197452 0.279407 -0.946124 -0.163650
-0.224610 -0.066467 1.284617 0.279407 -0.946124 -0.163650
-0.340001 0.000028 1.267309 -0.964065 -0.244868 -0.103043
-0.308456 -0.063157 1.122330 -0.964065 -0.244868 -0.103043
-0.322003 -0.063716 1.250396 -0.964065 -0.244868 -0.103043
-0.038617 0.000000 1.063926 0.000000 0.000000 0.000000
-0.220255 -0.000000 0.878677 0.000000 0.000000 0.000000
-0.000000 0.368852 0.017898 -0.000000 0.000000 -1.000000
0.260818 0.260818 0.017898 -0.000000 0.000000 -1.000000
-0.000000 -0.368852 0.017898 0.000000 0.000000 -1.000000
0.186900 0.186900 0.448288 0.380983 0.919774 0.094164
-0.000000 0.220255 0.878677 0.380983 0.919774 0.094164
0.155743 0.155743 0.878677 0.380983 0.919774 0.094164
0.368852 -0.000000 0.017898 -0.000000 0.000000 -1.000000
0.106631 -0.032462 2.351462 0.000000 -0.000000 1.000000
0.106631 0.032462 2.351462 0.000000 0.000000 1.000000
0.093184 0.000000 2.351462 -0.864236 0.357978 -0.353479
0.462140 0.087275 1.537772 -0.864236 0.357978 -0.353479
0.425990 0.000000 1.537772 -0.864236 0.357978 -0.353479
0.017923 0.136499 1.063926 0.000000 0.000000 0.000000
-0.238031 0.055353 1.197452 -0.027717 0.991263 0.128959
-0.308456 0.063157 1.122330 -0.027717 0.991263 0.128959
-0.215573 0.043552 1.292988 -0.027717 0.991263 0.128959
-0.322003 -0.063716 1.250396 -0.025747 -0.999643 -0.007083
-0.308456 -0.063157 1.122330 -0.025747 -0.999643 -0.007083
-0.224610 -0.066467 1.284617 -0.025747 -0.999643 -0.007083
0.636689 0.087275 1.537772 0.376414 0.908744 -0.180269
0.549415 0.123425 1.537772 0.376414 0.908744 -0.180269
0.017923 -0.136499 1.063926 -0.684713 -0.283618 0.671363
0.462140 -0.087275 1.537772 -0.684713 -0.283618 0.671363
-0.038617 0.000000 1.063926 -0.684713 -0.283618 0.671363
0.139092 0.045908 2.351462 -0.380593 0.918832 -0.104389
0.017923 0.136499 1.063926 -0.684713 0.283618 0.671363
0.186900 0.186900 0.448288 0.919774 0.380983 0.094164
0.155743 0.155743 0.878677 0.919774 0.380983 0.094164
0.264316 -0.000000 0.448288 0.919774 0.380983 0.094164
0.264316 -0.000000 0.448288 0.919774 -0.380983 0.094164
0.220254 -0.000000 0.878677 0.919774 -0.380983 0.094164
0.186900 -0.186900 0.448288 0.919774 -0.380983 0.094164
0.186900 -0.186900 0.448288 0.380983 -0.919775 0.094163
0.155743 -0.155743 0.878677 0.380983 -0.919775 0.094163
-0.000000 -0.264316 0.448288 0.380983 -0.919775 0.094163
-0.000000 -0.264316 0.448288 -0.380983 -0.919774 0.094163
-0.186900 -0.186900 0.448288 -0.919775 -0.380983 0.094164
-0.155743 -0.155743 0.878677 -0.919775 -0.380983 0.094164
-0.264316 0.000000 0.448288 -0.919775 -0.380983 0.094164
-0.155743 0.155743 0.878677 -0.380983 0.919774 0.094163
-0.264316 0.000000 0.448288 -0.919775 0.380983 0.094163
-0.220255 -0.000000 0.878677 -0.919775 0.380983 0.094163
-0.186900 0.186900 0.448288 -0.919775 0.380983 0.094163
0.425990 0.000000 1.537772 -0.864236 -0.357978 -0.353479
0.462140 -0.087275 1.537772 -0.864236 -0.357978 -0.353479
0.093184 0.000000 2.351462 -0.864236 -0.357978 -0.353479
0.462140 -0.087275 1.537772 -0.380593 -0.918832 -0.104389
0.549415 -0.123425 1.537772 0.368415 -0.889433 0.270515
0.636689 -0.087275 1.537772 0.808182 -0.334760 0.484538
0.672840 -0.000000 1.537772 0.808182 -0.334760 0.484538
0.171554 -0.032462 2.351462 0.808182 -0.334760 0.484538
0.185000 -0.000000 2.351462 0.808182 0.334761 0.484538
0.672840 -0.000000 1.537772 0.808182 0.334761 0.484538
0.171554 0.032462 2.351462 0.808182 0.334761 0.484538
0.171554 0.032462 2.351462 0.368415 0.889433 0.270515
-0.000000 0.368852 0.017898 0.373398 0.901462 0.218953
0.368852 -0.000000 0.017898 0.901462 0.373398 0.218953
0.260818 -0.260818 0.017898 0.901462 -0.373398 0.218953
0.260818 -0.260818 0.017898 0.373398 -0.901462 0.218953
-0.260818 -0.260818 0.017898 -0.373398 -0.901462 0.218953
-0.260818 -0.260818 0.017898 -0.901462 -0.373398 0.218953
-0.260818 0.260818 0.017898 -0.373398 0.901462 0.218953
-0.368852 0.000000 0.017898 -0.901462 0.373398 0.218953
0.155743 0.155743 0.878677 0.376414 0.908744 -0.180269
0.220254 -0.000000 0.878677 0.780132 0.323141 -0.535699
0.220254 -0.000000 0.878677 0.780132 -0.323141 -0.535699
0.155743 -0.155743 0.878677 0.376414 -0.908744 -0.180269
-0.000000 -0.220255 0.878677 -0.348358 -0.841010 0.413943
-0.238031 -0.055353 1.197452 0.613809 0.254248 0.747394
-0.000000 0.220255 0.878677 -0.348358 0.841010 0.413943
-0.121860 0.000000 1.083215 0.613809 -0.254248 0.747394
-0.238031 -0.055353 1.197452 0.919871 0.381023 -0.093055
-0.260959 0.000000 1.197452 0.919871 0.381023 -0.093055
-0.224610 -0.066467 1.284617 0.919871 0.381023 -0.093055
-0.260959 0.000000 1.197452 0.549931 0.637832 -0.539208
-0.258612 -0.001281 1.198330 0.549931 0.637832 -0.539208
-0.334617 -0.000000 1.122330 0.549931 0.637832 -0.539208
-0.260959 0.000000 1.197452 0.901123 -0.373257 -0.220583
-0.238031 0.055353 1.197452 0.901123 -0.373257 -0.220583
-0.240384 -0.010600 1.299440 0.901123 -0.373257 -0.220583
-0.090119 0.076629 1.083215 -0.036521 0.989888 0.137070
-0.308456 -0.063157 1.122330 -0.036521 -0.989888 0.137070
-0.308456 0.063157 1.122330 -0.751462 0.311266 -0.581737
-0.223828 -0.000000 0.979218 -0.751462 -0.311266 -0.581737
-0.090119 -0.076629 1.083215 0.224754 0.093096 0.969958
-0.038617 0.000000 1.063926 0.224754 -0.093096 0.969958
0.017923 0.136499 1.063926 -0.375158 0.817679 0.436643
-0.155743 0.155743 0.878677 -0.375158 0.817679 0.436643
-0.090119 0.076629 1.083215 -0.375158 0.817679 0.436643
-0.187613 -0.087432 0.979218 -0.375157 -0.817679 0.436643
-0.155743 -0.155743 0.878677 -0.375157 -0.817679 0.436643
-0.090119 -0.076629 1.083215 -0.375157 -0.817679 0.436643
-0.187613 0.087432 0.979218 -0.923382 0.382478 -0.032822
-0.155743 0.155743 0.878677 -0.923382 0.382478 -0.032822
-0.223828 -0.000000 0.979218 -0.923382 0.382478 -0.032822
-0.220255 -0.000000 0.878677 -0.923382 -0.382477 -0.032822
-0.155743 -0.155743 0.878677 -0.923382 -0.382477 -0.032822
-0.223828 -0.000000 0.979218 -0.923382 -0.382477 -0.032822
-0.322003 -0.063716 1.250396 -0.321522 -0.326601 0.888794
-0.224610 -0.066467 1.284617 -0.321522 -0.326601 0.888794
-0.340001 0.000028 1.267309 -0.321522 -0.326601 0.888794
-0.311691 0.061814 1.259947 -0.275218 0.237111 0.931683
-0.340001 0.000028 1.267309 -0.275218 0.237111 0.931683
-0.215573 0.043552 1.292988 -0.275218 0.237111 0.931683
-0.311691 0.061814 1.259947 -0.909761 0.414771 -0.017339
-0.308456 0.063157 1.122330 -0.909761 0.414771 -0.017339
-0.340001 0.000028 1.267309 -0.909761 0.414771 -0.017339
-0.334617 -0.000000 1.122330 -0.923339 -0.382459 -0.034217
-0.308456 -0.063157 1.122330 -0.923339 -0.382459 -0.034217
-0.340001 0.000028 1.267309 -0.923339 -0.382459 -0.034217
-0.000000 0.264316 0.448288 0.380983 0.919775 0.094163
-0.000000 0.220255 0.878677 0.380983 0.919775 0.094163
0.186900 0.186900 0.448288 0.380983 0.919775 0.094163
0.106631 0.032462 2.351462 -0.864236 0.357979 -0.353479
0.462140 0.087275 1.537772 -0.864236 0.357979 -0.353479
0.093184 0.000000 2.351462 -0.864236 0.357979 -0.353479
3 0 1 2
3 3 4 5
3 6 7 8
3 9 10 11
3 12 13 14
3 15 16 17
3 18 19 20
3 21 22 23
3 24 25 26
3 27 28 29
3 30 31 32
3 33 34 35
3 36 37 38
3 39 40 41
3 42 43 44
3 45 46 47
3 48 49 50
3 51 52 53
3 54 55 56
3 57 58 59
3 60 61 62
3 63 64 65
3 66 67 68
3 69 70 71
3 72 73 74
3 75 76 77
3 78 79 80
3 81 82 83
3 84 85 86
3 87 88 89
3 90 91 92
3 93 94 95
3 96 97 98
3 99 100 101
3 102 103 104
3 105 106 107
3 108 109 110
3 111 112 113
3 114 115 116
3 117 118 119
3 120 121 122
3 123 124 125
3 126 127 128
3 129 130 131
3 132 133 134
3 135 136 137
3 138 139 140
3 141 142 143
3 144 145 146
3 147 148 149
3 150 151 152
3 153 154 155
3 156 157 158
3 159 160 161
3 162 163 164
3 165 166 167
3 168 169 170
3 171 172 173
3 174 175 176
3 177 178 179
3 180 181 182
3 183 184 185
3 186 187 188
3 189 190 191
3 192 193 194
3 195 196 197
3 198 199 200
3 201 202 203
3 204 205 206
3 207 208 209
3 210 211 212
3 213 214 215
3 216 217 218
3 219 220 221
3 222 223 224
3 225 226 227
3 228 229 230
3 231 232 233
3 234 235 236
3 237 238 239
3 240 241 242
3 243 244 245
3 246 247 248
3 249 250 251
3 252 253 254
3 255 256 257
3 258 259 260
3 261 262 263
3 264 265 266
3 266 267 264
3 268 269 270
3 271 272 273
3 274 275 276
3 277 278 279
3 280 281 282
3 283 284 285
3 286 287 288
3 289 290 291
3 292 293 294
3 295 296 297
3 298 299 300
3 301 302 303
3 304 305 306
3 307 308 309
3 310 311 312
3 313 314 315
3 316 317 318
3 319 320 321
3 322 323 324
3 325 326 327
3 328 329 330
3 331 332 333
3 334 335 336
3 337 338 339
3 340 341 241
3 342 343 243
3 344 345 246
3 346 347 249
3 348 349 350
3 351 352 259
3 353 354 355
3 356 357 358
3 359 360 361
3 362 361 363
3 364 365 360
3 362 363 366
3 367 368 365
3 369 366 368
3 361 370 371
3 363 371 372
3 365 373 370
3 363 372 374
3 368 375 373
3 366 374 375
3 371 376 377
3 372 377 378
3 373 379 376
3 372 378 380
3 375 381 379
3 374 380 381
3 382 383 384
3 385 386 387
3 388 389 390
3 391 392 393
3 394 395 396
3 397 398 399
3 400 401 402
3 403 404 405
3 406 407 408
3 409 410 411
3 412 413 414
3 415 416 417
3 418 419 420
3 421 422 423
3 424 425 426
3 427 428 429
3 430 431 432
3 433 434 435
3 359 436 437
3 264 438 439
3 265 440 266
3 441 442 443
3 264 439 444
3 294 445 292
3 291 446 289
3 447 448 449
3 450 360 359
3 359 361 362
3 450 364 360
3 369 362 366
3 364 367 365
3 367 369 368
3 360 370 361
3 361 371 363
3 360 365 370
3 366 363 374
3 365 368 373
3 368 366 375
3 370 376 371
3 371 377 372
3 370 373 376
3 374 372 380
3 373 375 379
3 375 374 381
3 451 452 453
3 454 455 456
3 457 339 458
3 340 241 240
3 343 244 243
3 345 247 246
3 347 250 249
3 459 460 461
3 462 256 255
3 351 259 258
3 463 262 261
3 444 265 264
3 464 465 466
3 467 468 469
3 470 471 472
3 473 278 277
3 474 475 476
3 477 284 283
3 478 479 480
3 294 290 289
3 481 482 483
3 484 299 298
3 485 302 301
3 486 487 488
3 489 490 491
3 492 311 310
3 493 314 313
3 494 317 316
3 495 320 319
3 496 323 322
3 497 326 325
3 498 329 328
3 499 332 331
3 500 335 334
3 501 338 337
3 502 341 340
3 503 343 342
3 504 345 344
3 505 347 346
3 506 349 348
3 507 352 351
3 508 354 353
3 509 510 511
3 512 513 514
3 515 516 517
3 518 389 388
3 519 392 391
3 520 395 394
3 521 398 397
3 522 401 400
3 523 404 403
3 524 525 526
3 527 528 529
3 530 531 532
3 533 534 535
3 536 537 538
3 539 540 541
3 542 543 544
3 545 546 547
3 367 359 437
3 548 549 550
3 289 445 294
3 551 552 553
3 337 339 457
