ply
format ascii 1.0
comment Created by Blender 2.71 (sub 0) - www.blender.org, source file: ''
element vertex 712
property float x
property float y
property float z
property float nx
property float ny
property float nz
element face 248
property list uchar uint vertex_indices
end_header
0.000000 0.213208 2.318007 0.359274 0.867425 0.344233
0.000000 0.030669 2.777983 0.359274 0.867425 0.344233
0.021686 0.021687 2.777983 0.359274 0.867425 0.344233
0.021686 0.021687 2.777983 0.867430 0.359259 0.344235
0.030668 0.000000 2.777983 0.867430 0.359259 0.344235
0.213207 0.000000 2.318007 0.867430 0.359259 0.344235
0.213207 0.000000 2.318007 0.867425 -0.359274 0.344233
0.030668 0.000000 2.777983 0.867425 -0.359274 0.344233
0.021686 -0.021686 2.777983 0.867425 -0.359274 0.344233
0.021686 -0.021686 2.777983 0.359274 -0.867425 0.344233
0.000000 -0.030668 2.777983 0.359274 -0.867425 0.344233
0.000000 -0.213207 2.318007 0.359274 -0.867425 0.344233
0.000000 -0.213207 2.318007 -0.359274 -0.867425 0.344233
0.000000 -0.030668 2.777983 -0.359274 -0.867425 0.344233
-0.021686 -0.021686 2.777983 -0.359274 -0.867425 0.344233
-0.021686 -0.021686 2.777983 -0.867413 -0.359309 0.344228
-0.030669 0.000000 2.777983 -0.867413 -0.359309 0.344228
-0.213208 0.000000 2.318007 -0.867413 -0.359309 0.344228
0.021686 0.021687 2.777983 0.000000 -0.000000 1.000000
0.021686 -0.021686 2.777983 0.000000 -0.000000 1.000000
0.030668 0.000000 2.777983 0.000000 -0.000000 1.000000
-0.021686 -0.021686 2.777983 0.000000 0.000000 1.000000
0.000000 -0.030668 2.777983 0.000000 0.000000 1.000000
-0.021686 0.021687 2.777983 0.000000 -0.000000 1.000000
-0.030669 0.000000 2.777983 0.000000 -0.000000 1.000000
0.000000 0.030669 2.777983 -0.000000 0.000000 1.000000
-0.021686 0.021687 2.777983 -0.359274 0.867425 0.344233
0.000000 0.030669 2.777983 -0.359274 0.867425 0.344233
0.000000 0.213208 2.318007 -0.359274 0.867425 0.344233
-0.213208 0.000000 2.318007 -0.867418 0.359294 0.344230
-0.030669 0.000000 2.777983 -0.867418 0.359294 0.344230
-0.021686 0.021687 2.777983 -0.867418 0.359294 0.344230
0.000000 0.579917 0.436864 -0.225497 0.225497 -0.947788
-0.579917 0.000000 0.436864 -0.225497 0.225497 -0.947788
-0.384207 0.384207 0.481711 -0.225497 0.225497 -0.947788
0.000000 -0.579917 0.436864 -0.225498 -0.225498 -0.947788
-0.384207 -0.384206 0.481711 -0.225498 -0.225498 -0.947788
-0.579917 0.000000 0.436864 -0.225498 -0.225498 -0.947788
0.579917 0.000000 0.436864 0.225499 -0.225499 -0.947787
0.384206 -0.384206 0.481711 0.225499 -0.225499 -0.947787
0.000000 -0.579917 0.436864 0.225499 -0.225499 -0.947787
0.000000 0.579917 0.436864 0.225498 0.225498 -0.947788
0.384206 0.384207 0.481711 0.225498 0.225498 -0.947788
0.579917 0.000000 0.436864 0.225498 0.225498 -0.947788
0.000000 0.579917 0.436864 0.000000 0.000000 -1.000000
0.000000 -0.579917 0.436864 0.000000 0.000000 -1.000000
-0.579917 0.000000 0.436864 0.000000 0.000000 -1.000000
0.579917 0.000000 0.436864 0.000000 0.000000 -1.000000
0.000000 0.674495 0.404447 0.379857 0.846529 0.372958
0.000000 0.491600 0.819576 0.379857 0.846529 0.372958
0.325694 0.325695 0.864423 0.379857 0.846529 0.372958
0.000000 0.614335 0.787159 0.353588 0.833827 0.423919
0.000000 0.403283 1.202288 0.353588 0.833827 0.423919
0.267182 0.267183 1.247135 0.353588 0.833827 0.423919
0.000000 0.530297 1.169871 0.333056 0.837005 0.434161
0.000000 0.314966 1.585001 0.333056 0.837005 0.434161
0.208671 0.208671 1.629847 0.333056 0.837005 0.434161
0.000000 0.418341 1.552583 0.319578 0.860272 0.397243
0.000000 0.226649 1.967713 0.319578 0.860272 0.397243
0.150159 0.150159 2.012559 0.319578 0.860272 0.397243
0.000000 0.328154 1.935295 0.251423 0.880221 0.402489
0.000000 0.138332 2.350425 0.251423 0.880221 0.402489
0.091647 0.091648 2.395271 0.251423 0.880221 0.402489
0.325694 0.325695 0.864423 0.846529 0.379859 0.372956
0.491600 0.000000 0.819576 0.846529 0.379859 0.372956
0.674494 0.000000 0.404447 0.846529 0.379859 0.372956
0.267182 0.267183 1.247135 0.833827 0.353587 0.423921
0.403282 0.000000 1.202288 0.833827 0.353587 0.423921
0.614335 0.000000 0.787159 0.833827 0.353587 0.423921
0.208671 0.208671 1.629847 0.837007 0.333052 0.434162
0.314965 0.000000 1.585001 0.837007 0.333052 0.434162
0.530296 0.000000 1.169871 0.837007 0.333052 0.434162
0.150159 0.150159 2.012559 0.860274 0.319570 0.397244
0.226648 0.000000 1.967712 0.860274 0.319570 0.397244
0.418340 0.000000 1.552583 0.860274 0.319570 0.397244
0.091647 0.091648 2.395271 0.880222 0.251421 0.402489
0.138331 0.000000 2.350425 0.880222 0.251421 0.402489
0.328153 0.000000 1.935295 0.880222 0.251421 0.402489
0.674494 0.000000 0.404447 0.846528 -0.379860 0.372956
0.491600 0.000000 0.819576 0.846528 -0.379860 0.372956
0.325694 -0.325694 0.864423 0.846528 -0.379860 0.372956
0.614335 0.000000 0.787159 0.833827 -0.353588 0.423920
0.403282 0.000000 1.202288 0.833827 -0.353588 0.423920
0.267182 -0.267182 1.247135 0.833827 -0.353588 0.423920
0.530296 0.000000 1.169871 0.837006 -0.333054 0.434161
0.314965 0.000000 1.585001 0.837006 -0.333054 0.434161
0.208671 -0.208670 1.629847 0.837006 -0.333054 0.434161
0.418340 0.000000 1.552583 0.860274 -0.319570 0.397244
0.226648 0.000000 1.967712 0.860274 -0.319570 0.397244
0.150159 -0.150159 2.012559 0.860274 -0.319570 0.397244
0.328153 0.000000 1.935295 0.880221 -0.251423 0.402489
0.138331 0.000000 2.350425 0.880221 -0.251423 0.402489
0.091647 -0.091647 2.395271 0.880221 -0.251423 0.402489
0.325694 -0.325694 0.864423 0.379857 -0.846528 0.372958
0.000000 -0.491599 0.819576 0.379857 -0.846528 0.372958
0.000000 -0.674494 0.404447 0.379857 -0.846528 0.372958
0.267182 -0.267182 1.247135 0.353588 -0.833827 0.423919
0.000000 -0.403282 1.202288 0.353588 -0.833827 0.423919
0.000000 -0.614334 0.787159 0.353588 -0.833827 0.423919
0.208671 -0.208670 1.629847 0.333056 -0.837005 0.434161
0.000000 -0.314965 1.585001 0.333056 -0.837005 0.434161
0.000000 -0.530296 1.169871 0.333056 -0.837005 0.434161
0.150159 -0.150159 2.012559 0.319570 -0.860274 0.397244
0.000000 -0.226648 1.967712 0.319570 -0.860274 0.397244
0.000000 -0.418340 1.552583 0.319570 -0.860274 0.397244
0.091647 -0.091647 2.395271 0.251423 -0.880221 0.402489
0.000000 -0.138331 2.350425 0.251423 -0.880221 0.402489
0.000000 -0.328153 1.935295 0.251423 -0.880221 0.402489
0.000000 -0.674494 0.404447 -0.379856 -0.846529 0.372959
0.000000 -0.491599 0.819576 -0.379856 -0.846529 0.372959
-0.325695 -0.325694 0.864423 -0.379856 -0.846529 0.372959
0.000000 -0.614334 0.787159 -0.353587 -0.833828 0.423919
0.000000 -0.403282 1.202288 -0.353587 -0.833828 0.423919
-0.267183 -0.267182 1.247135 -0.353587 -0.833828 0.423919
0.000000 -0.530296 1.169871 -0.333056 -0.837005 0.434161
0.000000 -0.314965 1.585001 -0.333056 -0.837005 0.434161
-0.208671 -0.208670 1.629847 -0.333056 -0.837005 0.434161
0.000000 -0.418340 1.552583 -0.319575 -0.860273 0.397244
0.000000 -0.226648 1.967712 -0.319575 -0.860273 0.397244
-0.150159 -0.150158 2.012559 -0.319575 -0.860273 0.397244
0.000000 -0.328153 1.935295 -0.251423 -0.880221 0.402489
0.000000 -0.138331 2.350425 -0.251423 -0.880221 0.402489
-0.091647 -0.091647 2.395271 -0.251423 -0.880221 0.402489
-0.325695 -0.325694 0.864423 -0.846529 -0.379857 0.372958
-0.491600 0.000000 0.819576 -0.846529 -0.379857 0.372958
-0.674495 0.000000 0.404447 -0.846529 -0.379857 0.372958
-0.267183 -0.267182 1.247135 -0.833827 -0.353588 0.423919
-0.403283 0.000000 1.202288 -0.833827 -0.353588 0.423919
-0.614335 0.000000 0.787159 -0.833827 -0.353588 0.423919
-0.208671 -0.208670 1.629847 -0.837006 -0.333058 0.434159
-0.314966 0.000000 1.585001 -0.837006 -0.333058 0.434159
-0.530296 0.000000 1.169871 -0.837006 -0.333058 0.434159
-0.150159 -0.150158 2.012559 -0.860272 -0.319577 0.397243
-0.226649 0.000000 1.967712 -0.860272 -0.319577 0.397243
-0.418341 0.000000 1.552583 -0.860272 -0.319577 0.397243
-0.091647 -0.091647 2.395271 -0.880221 -0.251423 0.402489
-0.138331 0.000000 2.350425 -0.880221 -0.251423 0.402489
-0.328153 0.000000 1.935295 -0.880221 -0.251423 0.402489
-0.325695 0.325695 0.864423 -0.379856 0.846529 0.372958
0.000000 0.491600 0.819576 -0.379856 0.846529 0.372958
0.000000 0.674495 0.404447 -0.379856 0.846529 0.372958
-0.267183 0.267183 1.247135 -0.353587 0.833828 0.423919
0.000000 0.403283 1.202288 -0.353587 0.833828 0.423919
0.000000 0.614335 0.787159 -0.353587 0.833828 0.423919
-0.208671 0.208671 1.629847 -0.333056 0.837005 0.434161
0.000000 0.314966 1.585001 -0.333056 0.837005 0.434161
0.000000 0.530297 1.169871 -0.333056 0.837005 0.434161
-0.150159 0.150159 2.012559 -0.319578 0.860272 0.397243
0.000000 0.226649 1.967713 -0.319578 0.860272 0.397243
0.000000 0.418341 1.552583 -0.319578 0.860272 0.397243
-0.091647 0.091648 2.395271 -0.251423 0.880221 0.402489
0.000000 0.138332 2.350425 -0.251423 0.880221 0.402489
0.000000 0.328154 1.935295 -0.251423 0.880221 0.402489
-0.674495 0.000000 0.404447 -0.846529 0.379856 0.372958
-0.491600 0.000000 0.819576 -0.846529 0.379856 0.372958
-0.325695 0.325695 0.864423 -0.846529 0.379856 0.372958
-0.614335 0.000000 0.787159 -0.833828 0.353587 0.423919
-0.403283 0.000000 1.202288 -0.833828 0.353587 0.423919
-0.267183 0.267183 1.247135 -0.833828 0.353587 0.423919
-0.530296 0.000000 1.169871 -0.837006 0.333056 0.434159
-0.314966 0.000000 1.585001 -0.837006 0.333056 0.434159
-0.208671 0.208671 1.629847 -0.837006 0.333056 0.434159
-0.418341 0.000000 1.552583 -0.860273 0.319575 0.397244
-0.226649 0.000000 1.967712 -0.860273 0.319575 0.397244
-0.150159 0.150159 2.012559 -0.860273 0.319575 0.397244
-0.328153 0.000000 1.935295 -0.880222 0.251421 0.402489
-0.138331 0.000000 2.350425 -0.880222 0.251421 0.402489
-0.091647 0.091648 2.395271 -0.880222 0.251421 0.402489
0.000000 0.213208 2.318007 -0.008570 -0.540994 -0.840983
0.141254 0.141255 2.362854 -0.008570 -0.540994 -0.840983
0.091647 0.091648 2.395271 -0.008570 -0.540994 -0.840983
0.091647 0.091648 2.395271 -0.540994 -0.008570 -0.840983
0.141254 0.141255 2.362854 -0.540994 -0.008570 -0.840983
0.213207 0.000000 2.318007 -0.540994 -0.008570 -0.840983
0.213207 0.000000 2.318007 -0.540994 0.008570 -0.840983
0.141254 -0.141254 2.362854 -0.540994 0.008570 -0.840983
0.091647 -0.091647 2.395271 -0.540994 0.008570 -0.840983
0.091647 -0.091647 2.395271 -0.008570 0.540994 -0.840983
0.141254 -0.141254 2.362854 -0.008570 0.540994 -0.840983
0.000000 -0.213207 2.318007 -0.008570 0.540994 -0.840983
0.000000 -0.213207 2.318007 0.008570 0.540994 -0.840983
-0.141255 -0.141254 2.362854 0.008570 0.540994 -0.840983
-0.091647 -0.091647 2.395271 0.008570 0.540994 -0.840983
-0.091647 -0.091647 2.395271 0.540988 0.008566 -0.840986
-0.141255 -0.141254 2.362854 0.540988 0.008566 -0.840986
-0.213208 0.000000 2.318007 0.540988 0.008566 -0.840986
-0.091647 0.091648 2.395271 0.008570 -0.540994 -0.840983
-0.141255 0.141255 2.362854 0.008570 -0.540994 -0.840983
0.000000 0.213208 2.318007 0.008570 -0.540994 -0.840983
-0.213208 0.000000 2.318007 0.540988 -0.008566 -0.840986
-0.141255 0.141255 2.362854 0.540988 -0.008566 -0.840986
-0.091647 0.091648 2.395271 0.540988 -0.008566 -0.840986
0.000000 0.328154 1.935295 -0.023671 -0.414809 -0.909601
0.217408 0.217408 1.980141 -0.023671 -0.414809 -0.909601
0.150159 0.150159 2.012559 -0.023671 -0.414809 -0.909601
0.150159 0.150159 2.012559 -0.414810 -0.023670 -0.909600
0.217408 0.217408 1.980141 -0.414810 -0.023670 -0.909600
0.328153 0.000000 1.935295 -0.414810 -0.023670 -0.909600
0.328153 0.000000 1.935295 -0.414810 0.023670 -0.909600
0.217408 -0.217407 1.980141 -0.414810 0.023670 -0.909600
0.150159 -0.150159 2.012559 -0.414810 0.023670 -0.909600
0.150159 -0.150159 2.012559 -0.023674 0.414812 -0.909599
0.217408 -0.217407 1.980141 -0.023674 0.414812 -0.909599
0.000000 -0.328153 1.935295 -0.023674 0.414812 -0.909599
0.000000 -0.328153 1.935295 0.023672 0.414808 -0.909601
-0.217408 -0.217407 1.980141 0.023672 0.414808 -0.909601
-0.150159 -0.150158 2.012559 0.023672 0.414808 -0.909601
-0.150159 -0.150158 2.012559 0.414809 0.023670 -0.909600
-0.217408 -0.217407 1.980141 0.414809 0.023670 -0.909600
-0.328153 0.000000 1.935295 0.414809 0.023670 -0.909600
-0.150159 0.150159 2.012559 0.023671 -0.414809 -0.909601
-0.217408 0.217408 1.980141 0.023671 -0.414809 -0.909601
0.000000 0.328154 1.935295 0.023671 -0.414809 -0.909601
-0.328153 0.000000 1.935295 0.414810 -0.023670 -0.909600
-0.217408 0.217408 1.980141 0.414810 -0.023670 -0.909600
-0.150159 0.150159 2.012559 0.414810 -0.023670 -0.909600
0.000000 0.418341 1.552583 -0.048373 -0.387402 -0.920641
0.277159 0.277159 1.597429 -0.048373 -0.387402 -0.920641
0.208671 0.208671 1.629847 -0.048373 -0.387402 -0.920641
0.208671 0.208671 1.629847 -0.387403 -0.048372 -0.920641
0.277159 0.277159 1.597429 -0.387403 -0.048372 -0.920641
0.418340 0.000000 1.552583 -0.387403 -0.048372 -0.920641
0.418340 0.000000 1.552583 -0.387403 0.048372 -0.920641
0.277159 -0.277158 1.597429 -0.387403 0.048372 -0.920641
0.208671 -0.208670 1.629847 -0.387403 0.048372 -0.920641
0.208671 -0.208670 1.629847 -0.048373 0.387402 -0.920641
0.277159 -0.277158 1.597429 -0.048373 0.387402 -0.920641
0.000000 -0.418340 1.552583 -0.048373 0.387402 -0.920641
0.000000 -0.418340 1.552583 0.048373 0.387402 -0.920641
-0.277159 -0.277158 1.597429 0.048373 0.387402 -0.920641
-0.208671 -0.208670 1.629847 0.048373 0.387402 -0.920641
-0.208671 -0.208670 1.629847 0.387402 0.048373 -0.920641
-0.277159 -0.277158 1.597429 0.387402 0.048373 -0.920641
-0.418341 0.000000 1.552583 0.387402 0.048373 -0.920641
-0.208671 0.208671 1.629847 0.048373 -0.387402 -0.920641
-0.277159 0.277159 1.597429 0.048373 -0.387402 -0.920641
0.000000 0.418341 1.552583 0.048373 -0.387402 -0.920641
-0.418341 0.000000 1.552583 0.387402 -0.048373 -0.920641
-0.277159 0.277159 1.597429 0.387402 -0.048373 -0.920641
-0.208671 0.208671 1.629847 0.387402 -0.048373 -0.920641
0.000000 0.530297 1.169871 -0.042989 -0.321436 -0.945955
0.351331 0.351332 1.214717 -0.042989 -0.321436 -0.945955
0.267182 0.267183 1.247135 -0.042989 -0.321436 -0.945955
0.267182 0.267183 1.247135 -0.321436 -0.042989 -0.945955
0.351331 0.351332 1.214717 -0.321436 -0.042989 -0.945955
0.530296 0.000000 1.169871 -0.321436 -0.042989 -0.945955
0.530296 0.000000 1.169871 -0.321436 0.042989 -0.945955
0.351331 -0.351331 1.214717 -0.321436 0.042989 -0.945955
0.267182 -0.267182 1.247135 -0.321436 0.042989 -0.945955
0.267182 -0.267182 1.247135 -0.042989 0.321436 -0.945955
0.351331 -0.351331 1.214717 -0.042989 0.321436 -0.945955
0.000000 -0.530296 1.169871 -0.042989 0.321436 -0.945955
0.000000 -0.530296 1.169871 0.042989 0.321436 -0.945955
-0.351332 -0.351331 1.214717 0.042989 0.321436 -0.945955
-0.267183 -0.267182 1.247135 0.042989 0.321436 -0.945955
-0.267183 -0.267182 1.247135 0.321436 0.042988 -0.945955
-0.351332 -0.351331 1.214717 0.321436 0.042988 -0.945955
-0.530296 0.000000 1.169871 0.321436 0.042988 -0.945955
-0.267183 0.267183 1.247135 0.042989 -0.321436 -0.945955
-0.351332 0.351332 1.214717 0.042989 -0.321436 -0.945955
0.000000 0.530297 1.169871 0.042989 -0.321436 -0.945955
-0.530296 0.000000 1.169871 0.321436 -0.042988 -0.945955
-0.351332 0.351332 1.214717 0.321436 -0.042988 -0.945955
-0.267183 0.267183 1.247135 0.321436 -0.042988 -0.945955
0.000000 0.614335 0.787159 -0.058220 -0.318920 -0.945992
0.407009 0.407010 0.832005 -0.058220 -0.318920 -0.945992
0.325694 0.325695 0.864423 -0.058220 -0.318920 -0.945992
0.325694 0.325695 0.864423 -0.318919 -0.058220 -0.945992
0.407009 0.407010 0.832005 -0.318919 -0.058220 -0.945992
0.614335 0.000000 0.787159 -0.318919 -0.058220 -0.945992
0.614335 0.000000 0.787159 -0.318919 0.058221 -0.945992
0.407009 -0.407009 0.832005 -0.318919 0.058221 -0.945992
0.325694 -0.325694 0.864423 -0.318919 0.058221 -0.945992
0.325694 -0.325694 0.864423 -0.058220 0.318920 -0.945992
0.407009 -0.407009 0.832005 -0.058220 0.318920 -0.945992
0.000000 -0.614334 0.787159 -0.058220 0.318920 -0.945992
0.000000 -0.614334 0.787159 0.058220 0.318920 -0.945992
-0.407009 -0.407009 0.832005 0.058220 0.318920 -0.945992
-0.325695 -0.325694 0.864423 0.058220 0.318920 -0.945992
-0.325695 -0.325694 0.864423 0.318922 0.058222 -0.945991
-0.407009 -0.407009 0.832005 0.318922 0.058222 -0.945991
-0.614335 0.000000 0.787159 0.318922 0.058222 -0.945991
-0.325695 0.325695 0.864423 0.058222 -0.318922 -0.945991
-0.407009 0.407009 0.832005 0.058222 -0.318922 -0.945991
0.000000 0.614335 0.787159 0.058222 -0.318922 -0.945991
-0.614335 0.000000 0.787159 0.318922 -0.058222 -0.945991
-0.407009 0.407009 0.832005 0.318922 -0.058222 -0.945991
-0.325695 0.325695 0.864423 0.318922 -0.058222 -0.945991
0.000000 0.674495 0.404447 -0.099562 -0.376882 -0.920895
0.446866 0.446866 0.449293 -0.099562 -0.376882 -0.920895
0.384206 0.384207 0.481711 -0.099562 -0.376882 -0.920895
0.384206 0.384207 0.481711 -0.376880 -0.099560 -0.920896
0.446866 0.446866 0.449293 -0.376880 -0.099560 -0.920896
0.674494 0.000000 0.404447 -0.376880 -0.099560 -0.920896
0.674494 0.000000 0.404447 -0.376880 0.099560 -0.920896
0.446866 -0.446865 0.449293 -0.376880 0.099560 -0.920896
0.384206 -0.384206 0.481711 -0.376880 0.099560 -0.920896
0.384206 -0.384206 0.481711 -0.099562 0.376882 -0.920895
0.446866 -0.446865 0.449293 -0.099562 0.376882 -0.920895
0.000000 -0.674494 0.404447 -0.099562 0.376882 -0.920895
0.000000 -0.674494 0.404447 0.099562 0.376883 -0.920895
-0.446866 -0.446865 0.449293 0.099562 0.376883 -0.920895
-0.384207 -0.384206 0.481711 0.099562 0.376883 -0.920895
-0.384207 -0.384206 0.481711 0.376883 0.099562 -0.920895
-0.446866 -0.446865 0.449293 0.376883 0.099562 -0.920895
-0.674495 0.000000 0.404447 0.376883 0.099562 -0.920895
0.000000 0.674495 0.404447 0.054660 -0.323753 -0.944562
0.000000 0.579917 0.436864 0.054660 -0.323753 -0.944562
-0.384207 0.384207 0.481711 0.054660 -0.323753 -0.944562
-0.674495 0.000000 0.404447 0.376883 -0.099562 -0.920895
-0.446866 0.446866 0.449293 0.376883 -0.099562 -0.920895
-0.384207 0.384207 0.481711 0.376883 -0.099562 -0.920895
-0.078252 -0.078251 0.280407 -0.922507 -0.382119 0.054451
-0.110665 0.000000 0.280407 -0.922507 -0.382119 0.054451
-0.126906 0.000000 0.005255 -0.922507 -0.382119 0.054451
0.000000 0.110665 0.280407 0.382117 0.922508 -0.054452
0.000000 0.126906 0.555558 0.382117 0.922508 -0.054452
0.089736 0.089736 0.555558 0.382117 0.922508 -0.054452
-0.078252 0.078252 0.280407 -0.382115 0.922509 0.054452
0.000000 0.110665 0.280407 -0.382115 0.922509 0.054452
0.000000 0.126906 0.005255 -0.382115 0.922509 0.054452
0.078251 0.078252 0.280407 0.922512 0.382108 -0.054454
0.089736 0.089736 0.555558 0.922512 0.382108 -0.054454
0.126905 0.000000 0.555558 0.922512 0.382108 -0.054454
0.089736 -0.089735 0.005255 0.382120 -0.922507 0.054453
0.078251 -0.078251 0.280407 0.382120 -0.922507 0.054453
0.000000 -0.110664 0.280407 0.382120 -0.922507 0.054453
0.126905 0.000000 0.555558 0.922510 -0.382112 -0.054454
0.089736 -0.089735 0.555558 0.922510 -0.382112 -0.054454
0.078251 -0.078251 0.280407 0.922510 -0.382112 -0.054454
0.126905 0.000000 0.005255 0.922507 -0.382120 0.054451
0.110664 0.000000 0.280407 0.922507 -0.382120 0.054451
0.078251 -0.078251 0.280407 0.922507 -0.382120 0.054451
0.089736 -0.089735 0.555558 0.382117 -0.922508 -0.054452
0.000000 -0.126905 0.555558 0.382117 -0.922508 -0.054452
0.000000 -0.110664 0.280407 0.382117 -0.922508 -0.054452
0.078251 0.078252 0.280407 0.922509 0.382115 0.054452
0.110664 0.000000 0.280407 0.922509 0.382115 0.054452
0.126905 0.000000 0.005255 0.922509 0.382115 0.054452
0.000000 -0.110664 0.280407 -0.382117 -0.922508 -0.054452
0.000000 -0.126905 0.555558 -0.382117 -0.922508 -0.054452
-0.089736 -0.089735 0.555558 -0.382117 -0.922508 -0.054452
-0.110665 0.000000 0.280407 -0.922509 0.382115 0.054451
-0.078252 0.078252 0.280407 -0.922509 0.382115 0.054451
-0.089736 0.089736 0.005255 -0.922509 0.382115 0.054451
0.000000 0.110665 0.280407 0.382119 0.922507 0.054452
0.078251 0.078252 0.280407 0.382119 0.922507 0.054452
0.089736 0.089736 0.005255 0.382119 0.922507 0.054452
-0.078252 -0.078251 0.280407 -0.922507 -0.382120 -0.054451
-0.089736 -0.089735 0.555558 -0.922507 -0.382120 -0.054451
-0.126906 0.000000 0.555558 -0.922507 -0.382120 -0.054451
0.089736 0.089736 0.555558 0.000000 -0.000000 1.000000
0.089736 -0.089735 0.555558 0.000000 -0.000000 1.000000
0.126905 0.000000 0.555558 0.000000 -0.000000 1.000000
-0.089736 -0.089735 0.555558 0.000000 0.000000 1.000000
0.000000 -0.126905 0.555558 0.000000 0.000000 1.000000
-0.089736 0.089736 0.555558 0.000000 -0.000000 1.000000
-0.126906 0.000000 0.555558 0.000000 -0.000000 1.000000
0.000000 0.126906 0.555558 -0.000000 0.000000 1.000000
-0.089736 0.089736 0.555558 -0.382117 0.922508 -0.054452
0.000000 0.126906 0.555558 -0.382117 0.922508 -0.054452
0.000000 0.110665 0.280407 -0.382117 0.922508 -0.054452
-0.126906 0.000000 0.555558 -0.922508 0.382117 -0.054451
-0.089736 0.089736 0.555558 -0.922508 0.382117 -0.054451
-0.078252 0.078252 0.280407 -0.922508 0.382117 -0.054451
0.000000 -0.110664 0.280407 -0.382115 -0.922509 0.054451
-0.078252 -0.078251 0.280407 -0.382115 -0.922509 0.054451
-0.089736 -0.089735 0.005255 -0.382115 -0.922509 0.054451
0.000000 0.126906 0.005255 0.000000 -0.000000 -1.000000
-0.126906 0.000000 0.005255 0.000000 -0.000000 -1.000000
-0.089736 0.089736 0.005255 0.000000 -0.000000 -1.000000
0.000000 -0.126905 0.005255 0.000000 0.000000 -1.000000
-0.089736 -0.089735 0.005255 0.000000 0.000000 -1.000000
0.126905 0.000000 0.005255 0.000000 0.000000 -1.000000
0.089736 -0.089735 0.005255 0.000000 0.000000 -1.000000
0.089736 0.089736 0.005255 0.000000 0.000000 -1.000000
0.141254 0.141255 2.362854 0.335166 0.875279 0.348640
0.000000 0.213208 2.318007 0.335166 0.875279 0.348640
0.021686 0.021687 2.777983 0.335166 0.875279 0.348640
0.141254 0.141255 2.362854 0.875280 0.335164 0.348640
0.021686 0.021687 2.777983 0.875280 0.335164 0.348640
0.213207 0.000000 2.318007 0.875280 0.335164 0.348640
0.141254 -0.141254 2.362854 0.875279 -0.335166 0.348640
0.213207 0.000000 2.318007 0.875279 -0.335166 0.348640
0.021686 -0.021686 2.777983 0.875279 -0.335166 0.348640
0.141254 -0.141254 2.362854 0.335166 -0.875279 0.348640
0.021686 -0.021686 2.777983 0.335166 -0.875279 0.348640
0.000000 -0.213207 2.318007 0.335166 -0.875279 0.348640
-0.141255 -0.141254 2.362854 -0.335164 -0.875280 0.348640
0.000000 -0.213207 2.318007 -0.335164 -0.875280 0.348640
-0.021686 -0.021686 2.777983 -0.335164 -0.875280 0.348640
-0.141255 -0.141254 2.362854 -0.875279 -0.335165 0.348642
-0.021686 -0.021686 2.777983 -0.875279 -0.335165 0.348642
-0.213208 0.000000 2.318007 -0.875279 -0.335165 0.348642
-0.141255 0.141255 2.362854 -0.335164 0.875280 0.348640
-0.021686 0.021687 2.777983 -0.335164 0.875280 0.348640
0.000000 0.213208 2.318007 -0.335164 0.875280 0.348640
-0.141255 0.141255 2.362854 -0.875280 0.335163 0.348641
-0.213208 0.000000 2.318007 -0.875280 0.335163 0.348641
-0.021686 0.021687 2.777983 -0.875280 0.335163 0.348641
0.446866 0.446866 0.449293 0.394100 0.844921 0.361655
0.000000 0.674495 0.404447 0.394100 0.844921 0.361655
0.325694 0.325695 0.864423 0.394100 0.844921 0.361655
0.407009 0.407010 0.832005 0.378471 0.831123 0.407424
0.000000 0.614335 0.787159 0.378471 0.831123 0.407424
0.267182 0.267183 1.247135 0.378471 0.831123 0.407424
0.351331 0.351332 1.214717 0.370889 0.831660 0.413260
0.000000 0.530297 1.169871 0.370889 0.831660 0.413260
0.208671 0.208671 1.629847 0.370889 0.831660 0.413260
0.277159 0.277159 1.597429 0.372263 0.849533 0.373782
0.000000 0.418341 1.552583 0.372263 0.849533 0.373782
0.150159 0.150159 2.012559 0.372263 0.849533 0.373782
0.217408 0.217408 1.980141 0.360395 0.856821 0.368746
0.000000 0.328154 1.935295 0.360395 0.856821 0.368746
0.091647 0.091648 2.395271 0.360395 0.856821 0.368746
0.446866 0.446866 0.449293 0.844921 0.394098 0.361656
0.325694 0.325695 0.864423 0.844921 0.394098 0.361656
0.674494 0.000000 0.404447 0.844921 0.394098 0.361656
0.407009 0.407010 0.832005 0.831122 0.378472 0.407424
0.267182 0.267183 1.247135 0.831122 0.378472 0.407424
0.614335 0.000000 0.787159 0.831122 0.378472 0.407424
0.351331 0.351332 1.214717 0.831660 0.370889 0.413259
0.208671 0.208671 1.629847 0.831660 0.370889 0.413259
0.530296 0.000000 1.169871 0.831660 0.370889 0.413259
0.277159 0.277159 1.597429 0.849535 0.372261 0.373782
0.150159 0.150159 2.012559 0.849535 0.372261 0.373782
0.418340 0.000000 1.552583 0.849535 0.372261 0.373782
0.217408 0.217408 1.980141 0.856822 0.360391 0.368746
0.091647 0.091648 2.395271 0.856822 0.360391 0.368746
0.328153 0.000000 1.935295 0.856822 0.360391 0.368746
0.446866 -0.446865 0.449293 0.844921 -0.394099 0.361656
0.674494 0.000000 0.404447 0.844921 -0.394099 0.361656
0.325694 -0.325694 0.864423 0.844921 -0.394099 0.361656
0.407009 -0.407009 0.832005 0.831122 -0.378473 0.407424
0.614335 0.000000 0.787159 0.831122 -0.378473 0.407424
0.267182 -0.267182 1.247135 0.831122 -0.378473 0.407424
0.351331 -0.351331 1.214717 0.831660 -0.370890 0.413259
0.530296 0.000000 1.169871 0.831660 -0.370890 0.413259
0.208671 -0.208670 1.629847 0.831660 -0.370890 0.413259
0.277159 -0.277158 1.597429 0.849534 -0.372262 0.373781
0.418340 0.000000 1.552583 0.849534 -0.372262 0.373781
0.150159 -0.150159 2.012559 0.849534 -0.372262 0.373781
0.217408 -0.217407 1.980141 0.856821 -0.360393 0.368746
0.328153 0.000000 1.935295 0.856821 -0.360393 0.368746
0.091647 -0.091647 2.395271 0.856821 -0.360393 0.368746
0.446866 -0.446865 0.449293 0.394100 -0.844921 0.361655
0.325694 -0.325694 0.864423 0.394100 -0.844921 0.361655
0.000000 -0.674494 0.404447 0.394100 -0.844921 0.361655
0.407009 -0.407009 0.832005 0.378471 -0.831123 0.407424
0.267182 -0.267182 1.247135 0.378471 -0.831123 0.407424
0.000000 -0.614334 0.787159 0.378471 -0.831123 0.407424
0.351331 -0.351331 1.214717 0.370889 -0.831660 0.413260
0.208671 -0.208670 1.629847 0.370889 -0.831660 0.413260
0.000000 -0.530296 1.169871 0.370889 -0.831660 0.413260
0.277159 -0.277158 1.597429 0.372264 -0.849534 0.373781
0.150159 -0.150159 2.012559 0.372264 -0.849534 0.373781
0.000000 -0.418340 1.552583 0.372264 -0.849534 0.373781
0.217408 -0.217407 1.980141 0.360395 -0.856821 0.368746
0.091647 -0.091647 2.395271 0.360395 -0.856821 0.368746
0.000000 -0.328153 1.935295 0.360395 -0.856821 0.368746
-0.446866 -0.446865 0.449293 -0.394100 -0.844921 0.361654
0.000000 -0.674494 0.404447 -0.394100 -0.844921 0.361654
-0.325695 -0.325694 0.864423 -0.394100 -0.844921 0.361654
-0.407009 -0.407009 0.832005 -0.378471 -0.831123 0.407423
0.000000 -0.614334 0.787159 -0.378471 -0.831123 0.407423
-0.267183 -0.267182 1.247135 -0.378471 -0.831123 0.407423
-0.351332 -0.351331 1.214717 -0.370888 -0.831660 0.413260
0.000000 -0.530296 1.169871 -0.370888 -0.831660 0.413260
-0.208671 -0.208670 1.629847 -0.370888 -0.831660 0.413260
-0.277159 -0.277158 1.597429 -0.372263 -0.849533 0.373782
0.000000 -0.418340 1.552583 -0.372263 -0.849533 0.373782
-0.150159 -0.150158 2.012559 -0.372263 -0.849533 0.373782
-0.217408 -0.217407 1.980141 -0.360395 -0.856821 0.368746
0.000000 -0.328153 1.935295 -0.360395 -0.856821 0.368746
-0.091647 -0.091647 2.395271 -0.360395 -0.856821 0.368746
-0.446866 -0.446865 0.449293 -0.844921 -0.394100 0.361654
-0.325695 -0.325694 0.864423 -0.844921 -0.394100 0.361654
-0.674495 0.000000 0.404447 -0.844921 -0.394100 0.361654
-0.407009 -0.407009 0.832005 -0.831123 -0.378473 0.407423
-0.267183 -0.267182 1.247135 -0.831123 -0.378473 0.407423
-0.614335 0.000000 0.787159 -0.831123 -0.378473 0.407423
-0.351332 -0.351331 1.214717 -0.831660 -0.370887 0.413260
-0.208671 -0.208670 1.629847 -0.831660 -0.370887 0.413260
-0.530296 0.000000 1.169871 -0.831660 -0.370887 0.413260
-0.277159 -0.277158 1.597429 -0.849533 -0.372264 0.373782
-0.150159 -0.150158 2.012559 -0.849533 -0.372264 0.373782
-0.418341 0.000000 1.552583 -0.849533 -0.372264 0.373782
-0.217408 -0.217407 1.980141 -0.856821 -0.360393 0.368746
-0.091647 -0.091647 2.395271 -0.856821 -0.360393 0.368746
-0.328153 0.000000 1.935295 -0.856821 -0.360393 0.368746
-0.446866 0.446866 0.449293 -0.394100 0.844921 0.361654
-0.325695 0.325695 0.864423 -0.394100 0.844921 0.361654
0.000000 0.674495 0.404447 -0.394100 0.844921 0.361654
-0.407009 0.407009 0.832005 -0.378474 0.831123 0.407422
-0.267183 0.267183 1.247135 -0.378474 0.831123 0.407422
0.000000 0.614335 0.787159 -0.378474 0.831123 0.407422
-0.351332 0.351332 1.214717 -0.370888 0.831660 0.413260
-0.208671 0.208671 1.629847 -0.370888 0.831660 0.413260
0.000000 0.530297 1.169871 -0.370888 0.831660 0.413260
-0.277159 0.277159 1.597429 -0.372263 0.849533 0.373782
-0.150159 0.150159 2.012559 -0.372263 0.849533 0.373782
0.000000 0.418341 1.552583 -0.372263 0.849533 0.373782
-0.217408 0.217408 1.980141 -0.360395 0.856821 0.368746
-0.091647 0.091648 2.395271 -0.360395 0.856821 0.368746
0.000000 0.328154 1.935295 -0.360395 0.856821 0.368746
-0.446866 0.446866 0.449293 -0.844921 0.394100 0.361654
-0.674495 0.000000 0.404447 -0.844921 0.394100 0.361654
-0.325695 0.325695 0.864423 -0.844921 0.394100 0.361654
-0.407009 0.407009 0.832005 -0.831123 0.378474 0.407422
-0.614335 0.000000 0.787159 -0.831123 0.378474 0.407422
-0.267183 0.267183 1.247135 -0.831123 0.378474 0.407422
-0.351332 0.351332 1.214717 -0.831661 0.370886 0.413260
-0.530296 0.000000 1.169871 -0.831661 0.370886 0.413260
-0.208671 0.208671 1.629847 -0.831661 0.370886 0.413260
-0.277159 0.277159 1.597429 -0.849533 0.372263 0.373782
-0.418341 0.000000 1.552583 -0.849533 0.372263 0.373782
-0.150159 0.150159 2.012559 -0.849533 0.372263 0.373782
-0.217408 0.217408 1.980141 -0.856822 0.360391 0.368746
-0.328153 0.000000 1.935295 -0.856822 0.360391 0.368746
-0.091647 0.091648 2.395271 -0.856822 0.360391 0.368746
0.000000 0.138332 2.350425 0.239487 -0.385754 -0.890977
0.000000 0.213208 2.318007 0.239487 -0.385754 -0.890977
0.091647 0.091648 2.395271 0.239487 -0.385754 -0.890977
0.138331 0.000000 2.350425 -0.385754 0.239485 -0.890978
0.091647 0.091648 2.395271 -0.385754 0.239485 -0.890978
0.213207 0.000000 2.318007 -0.385754 0.239485 -0.890978
0.138331 0.000000 2.350425 -0.385754 -0.239487 -0.890977
0.213207 0.000000 2.318007 -0.385754 -0.239487 -0.890977
0.091647 -0.091647 2.395271 -0.385754 -0.239487 -0.890977
0.000000 -0.138331 2.350425 0.239487 0.385754 -0.890977
0.091647 -0.091647 2.395271 0.239487 0.385754 -0.890977
0.000000 -0.213207 2.318007 0.239487 0.385754 -0.890977
0.000000 -0.138331 2.350425 -0.239487 0.385754 -0.890977
0.000000 -0.213207 2.318007 -0.239487 0.385754 -0.890977
-0.091647 -0.091647 2.395271 -0.239487 0.385754 -0.890977
-0.138331 0.000000 2.350425 0.385749 -0.239490 -0.890978
-0.091647 -0.091647 2.395271 0.385749 -0.239490 -0.890978
-0.213208 0.000000 2.318007 0.385749 -0.239490 -0.890978
0.000000 0.138332 2.350425 -0.239487 -0.385754 -0.890977
-0.091647 0.091648 2.395271 -0.239487 -0.385754 -0.890977
0.000000 0.213208 2.318007 -0.239487 -0.385754 -0.890977
-0.138331 0.000000 2.350425 0.385749 0.239488 -0.890979
-0.213208 0.000000 2.318007 0.385749 0.239488 -0.890979
-0.091647 0.091648 2.395271 0.385749 0.239488 -0.890979
0.000000 0.226649 1.967713 0.128451 -0.301714 -0.944706
0.000000 0.328154 1.935295 0.128451 -0.301714 -0.944706
0.150159 0.150159 2.012559 0.128451 -0.301714 -0.944706
0.226648 0.000000 1.967712 -0.301705 0.128464 -0.944707
0.150159 0.150159 2.012559 -0.301705 0.128464 -0.944707
0.328153 0.000000 1.935295 -0.301705 0.128464 -0.944707
0.226648 0.000000 1.967712 -0.301705 -0.128464 -0.944707
0.328153 0.000000 1.935295 -0.301705 -0.128464 -0.944707
0.150159 -0.150159 2.012559 -0.301705 -0.128464 -0.944707
0.000000 -0.226648 1.967712 0.128464 0.301705 -0.944707
0.150159 -0.150159 2.012559 0.128464 0.301705 -0.944707
0.000000 -0.328153 1.935295 0.128464 0.301705 -0.944707
0.000000 -0.226648 1.967712 -0.128462 0.301705 -0.944707
0.000000 -0.328153 1.935295 -0.128462 0.301705 -0.944707
-0.150159 -0.150158 2.012559 -0.128462 0.301705 -0.944707
-0.226649 0.000000 1.967712 0.301708 -0.128461 -0.944706
-0.150159 -0.150158 2.012559 0.301708 -0.128461 -0.944706
-0.328153 0.000000 1.935295 0.301708 -0.128461 -0.944706
0.000000 0.226649 1.967713 -0.128451 -0.301714 -0.944706
-0.150159 0.150159 2.012559 -0.128451 -0.301714 -0.944706
0.000000 0.328154 1.935295 -0.128451 -0.301714 -0.944706
-0.226649 0.000000 1.967712 0.301708 0.128460 -0.944706
-0.328153 0.000000 1.935295 0.301708 0.128460 -0.944706
-0.150159 0.150159 2.012559 0.301708 0.128460 -0.944706
0.000000 0.314966 1.585001 0.052569 -0.298814 -0.952862
0.000000 0.418341 1.552583 0.052569 -0.298814 -0.952862
0.208671 0.208671 1.629847 0.052569 -0.298814 -0.952862
0.314965 0.000000 1.585001 -0.298814 0.052571 -0.952862
0.208671 0.208671 1.629847 -0.298814 0.052571 -0.952862
0.418340 0.000000 1.552583 -0.298814 0.052571 -0.952862
0.314965 0.000000 1.585001 -0.298814 -0.052571 -0.952862
0.418340 0.000000 1.552583 -0.298814 -0.052571 -0.952862
0.208671 -0.208670 1.629847 -0.298814 -0.052571 -0.952862
0.000000 -0.314965 1.585001 0.052569 0.298814 -0.952862
0.208671 -0.208670 1.629847 0.052569 0.298814 -0.952862
0.000000 -0.418340 1.552583 0.052569 0.298814 -0.952862
0.000000 -0.314965 1.585001 -0.052569 0.298814 -0.952862
0.000000 -0.418340 1.552583 -0.052569 0.298814 -0.952862
-0.208671 -0.208670 1.629847 -0.052569 0.298814 -0.952862
-0.314966 0.000000 1.585001 0.298814 -0.052570 -0.952862
-0.208671 -0.208670 1.629847 0.298814 -0.052570 -0.952862
-0.418341 0.000000 1.552583 0.298814 -0.052570 -0.952862
0.000000 0.314966 1.585001 -0.052569 -0.298814 -0.952862
-0.208671 0.208671 1.629847 -0.052569 -0.298814 -0.952862
0.000000 0.418341 1.552583 -0.052569 -0.298814 -0.952862
-0.314966 0.000000 1.585001 0.298814 0.052569 -0.952862
-0.418341 0.000000 1.552583 0.298814 0.052569 -0.952862
-0.208671 0.208671 1.629847 0.298814 0.052569 -0.952862
0.000000 0.403283 1.202288 0.036643 -0.247131 -0.968289
0.000000 0.530297 1.169871 0.036643 -0.247131 -0.968289
0.267182 0.267183 1.247135 0.036643 -0.247131 -0.968289
0.403282 0.000000 1.202288 -0.247131 0.036643 -0.968289
0.267182 0.267183 1.247135 -0.247131 0.036643 -0.968289
0.530296 0.000000 1.169871 -0.247131 0.036643 -0.968289
0.403282 0.000000 1.202288 -0.247131 -0.036643 -0.968289
0.530296 0.000000 1.169871 -0.247131 -0.036643 -0.968289
0.267182 -0.267182 1.247135 -0.247131 -0.036643 -0.968289
0.000000 -0.403282 1.202288 0.036643 0.247131 -0.968289
0.267182 -0.267182 1.247135 0.036643 0.247131 -0.968289
0.000000 -0.530296 1.169871 0.036643 0.247131 -0.968289
0.000000 -0.403282 1.202288 -0.036643 0.247131 -0.968289
0.000000 -0.530296 1.169871 -0.036643 0.247131 -0.968289
-0.267183 -0.267182 1.247135 -0.036643 0.247131 -0.968289
-0.403283 0.000000 1.202288 0.247133 -0.036642 -0.968289
-0.267183 -0.267182 1.247135 0.247133 -0.036642 -0.968289
-0.530296 0.000000 1.169871 0.247133 -0.036642 -0.968289
0.000000 0.403283 1.202288 -0.036643 -0.247131 -0.968289
-0.267183 0.267183 1.247135 -0.036643 -0.247131 -0.968289
0.000000 0.530297 1.169871 -0.036643 -0.247131 -0.968289
-0.403283 0.000000 1.202288 0.247133 0.036642 -0.968289
-0.530296 0.000000 1.169871 0.247133 0.036642 -0.968289
-0.267183 0.267183 1.247135 0.247133 0.036642 -0.968289
0.000000 0.491600 0.819576 0.003051 -0.255364 -0.966840
0.000000 0.614335 0.787159 0.003051 -0.255364 -0.966840
0.325694 0.325695 0.864423 0.003051 -0.255364 -0.966840
0.491600 0.000000 0.819576 -0.255364 0.003050 -0.966840
0.325694 0.325695 0.864423 -0.255364 0.003050 -0.966840
0.614335 0.000000 0.787159 -0.255364 0.003050 -0.966840
0.491600 0.000000 0.819576 -0.255364 -0.003050 -0.966840
0.614335 0.000000 0.787159 -0.255364 -0.003050 -0.966840
0.325694 -0.325694 0.864423 -0.255364 -0.003050 -0.966840
0.000000 -0.491599 0.819576 0.003051 0.255364 -0.966840
0.325694 -0.325694 0.864423 0.003051 0.255364 -0.966840
0.000000 -0.614334 0.787159 0.003051 0.255364 -0.966840
0.000000 -0.491599 0.819576 -0.003051 0.255364 -0.966840
0.000000 -0.614334 0.787159 -0.003051 0.255364 -0.966840
-0.325695 -0.325694 0.864423 -0.003051 0.255364 -0.966840
-0.491600 0.000000 0.819576 0.255364 -0.003051 -0.966840
-0.325695 -0.325694 0.864423 0.255364 -0.003051 -0.966840
-0.614335 0.000000 0.787159 0.255364 -0.003051 -0.966840
0.000000 0.491600 0.819576 -0.003051 -0.255364 -0.966840
-0.325695 0.325695 0.864423 -0.003051 -0.255364 -0.966840
0.000000 0.614335 0.787159 -0.003051 -0.255364 -0.966840
-0.491600 0.000000 0.819576 0.255364 0.003051 -0.966840
-0.614335 0.000000 0.787159 0.255364 0.003051 -0.966840
-0.325695 0.325695 0.864423 0.255364 0.003051 -0.966840
0.000000 0.579917 0.436864 -0.054660 -0.323752 -0.944562
0.000000 0.674495 0.404447 -0.054660 -0.323752 -0.944562
0.384206 0.384207 0.481711 -0.054660 -0.323752 -0.944562
0.579917 0.000000 0.436864 -0.323755 -0.054663 -0.944560
0.384206 0.384207 0.481711 -0.323755 -0.054663 -0.944560
0.674494 0.000000 0.404447 -0.323755 -0.054663 -0.944560
0.579917 0.000000 0.436864 -0.323755 0.054663 -0.944561
0.674494 0.000000 0.404447 -0.323755 0.054663 -0.944561
0.384206 -0.384206 0.481711 -0.323755 0.054663 -0.944561
0.000000 -0.579917 0.436864 -0.054663 0.323755 -0.944561
0.384206 -0.384206 0.481711 -0.054663 0.323755 -0.944561
0.000000 -0.674494 0.404447 -0.054663 0.323755 -0.944561
0.000000 -0.579917 0.436864 0.054663 0.323755 -0.944560
0.000000 -0.674494 0.404447 0.054663 0.323755 -0.944560
-0.384207 -0.384206 0.481711 0.054663 0.323755 -0.944560
-0.579917 0.000000 0.436864 0.323752 0.054660 -0.944562
-0.384207 -0.384206 0.481711 0.323752 0.054660 -0.944562
-0.674495 0.000000 0.404447 0.323752 0.054660 -0.944562
-0.446866 0.446866 0.449293 0.099562 -0.376883 -0.920895
0.000000 0.674495 0.404447 0.099562 -0.376883 -0.920895
-0.384207 0.384207 0.481711 0.099562 -0.376883 -0.920895
-0.579917 0.000000 0.436864 0.323753 -0.054660 -0.944562
-0.674495 0.000000 0.404447 0.323753 -0.054660 -0.944562
-0.384207 0.384207 0.481711 0.323753 -0.054660 -0.944562
-0.089736 -0.089735 0.005255 -0.922507 -0.382120 0.054451
-0.078252 -0.078251 0.280407 -0.922507 -0.382120 0.054451
-0.126906 0.000000 0.005255 -0.922507 -0.382120 0.054451
0.078251 0.078252 0.280407 0.382119 0.922507 -0.054453
0.000000 0.110665 0.280407 0.382119 0.922507 -0.054453
0.089736 0.089736 0.555558 0.382119 0.922507 -0.054453
-0.089736 0.089736 0.005255 -0.382117 0.922508 0.054451
-0.078252 0.078252 0.280407 -0.382117 0.922508 0.054451
0.000000 0.126906 0.005255 -0.382117 0.922508 0.054451
0.110664 0.000000 0.280407 0.922509 0.382115 -0.054452
0.078251 0.078252 0.280407 0.922509 0.382115 -0.054452
0.126905 0.000000 0.555558 0.922509 0.382115 -0.054452
0.000000 -0.126905 0.005255 0.382117 -0.922508 0.054452
0.089736 -0.089735 0.005255 0.382117 -0.922508 0.054452
0.000000 -0.110664 0.280407 0.382117 -0.922508 0.054452
0.110664 0.000000 0.280407 0.922507 -0.382120 -0.054452
0.126905 0.000000 0.555558 0.922507 -0.382120 -0.054452
0.078251 -0.078251 0.280407 0.922507 -0.382120 -0.054452
0.089736 -0.089735 0.005255 0.922510 -0.382112 0.054454
0.126905 0.000000 0.005255 0.922510 -0.382112 0.054454
0.078251 -0.078251 0.280407 0.922510 -0.382112 0.054454
0.078251 -0.078251 0.280407 0.382119 -0.922507 -0.054453
0.089736 -0.089735 0.555558 0.382119 -0.922507 -0.054453
0.000000 -0.110664 0.280407 0.382119 -0.922507 -0.054453
0.089736 0.089736 0.005255 0.922512 0.382108 0.054454
0.078251 0.078252 0.280407 0.922512 0.382108 0.054454
0.126905 0.000000 0.005255 0.922512 0.382108 0.054454
-0.078252 -0.078251 0.280407 -0.382115 -0.922509 -0.054451
0.000000 -0.110664 0.280407 -0.382115 -0.922509 -0.054451
-0.089736 -0.089735 0.555558 -0.382115 -0.922509 -0.054451
-0.126906 0.000000 0.005255 -0.922508 0.382117 0.054452
-0.110665 0.000000 0.280407 -0.922508 0.382117 0.054452
-0.089736 0.089736 0.005255 -0.922508 0.382117 0.054452
0.000000 0.126906 0.005255 0.382117 0.922508 0.054452
0.000000 0.110665 0.280407 0.382117 0.922508 0.054452
0.089736 0.089736 0.005255 0.382117 0.922508 0.054452
-0.110665 0.000000 0.280407 -0.922507 -0.382119 -0.054452
-0.078252 -0.078251 0.280407 -0.922507 -0.382119 -0.054452
-0.126906 0.000000 0.555558 -0.922507 -0.382119 -0.054452
-0.078252 0.078252 0.280407 -0.382115 0.922509 -0.054451
-0.089736 0.089736 0.555558 -0.382115 0.922509 -0.054451
0.000000 0.110665 0.280407 -0.382115 0.922509 -0.054451
-0.110665 0.000000 0.280407 -0.922509 0.382115 -0.054452
-0.126906 0.000000 0.555558 -0.922509 0.382115 -0.054452
-0.078252 0.078252 0.280407 -0.922509 0.382115 -0.054452
0.000000 -0.126905 0.005255 -0.382117 -0.922508 0.054452
0.000000 -0.110664 0.280407 -0.382117 -0.922508 0.054452
-0.089736 -0.089735 0.005255 -0.382117 -0.922508 0.054452
3 0 1 2
3 3 4 5
3 6 7 8
3 9 10 11
3 12 13 14
3 15 16 17
3 18 19 20
3 21 22 19
3 23 24 21
3 18 25 23
3 18 21 19
3 18 23 21
3 26 27 28
3 29 30 31
3 32 33 34
3 35 36 37
3 38 39 40
3 41 42 43
3 44 45 46
3 44 47 45
3 48 49 50
3 51 52 53
3 54 55 56
3 57 58 59
3 60 61 62
3 63 64 65
3 66 67 68
3 69 70 71
3 72 73 74
3 75 76 77
3 78 79 80
3 81 82 83
3 84 85 86
3 87 88 89
3 90 91 92
3 93 94 95
3 96 97 98
3 99 100 101
3 102 103 104
3 105 106 107
3 108 109 110
3 111 112 113
3 114 115 116
3 117 118 119
3 120 121 122
3 123 124 125
3 126 127 128
3 129 130 131
3 132 133 134
3 135 136 137
3 138 139 140
3 141 142 143
3 144 145 146
3 147 148 149
3 150 151 152
3 153 154 155
3 156 157 158
3 159 160 161
3 162 163 164
3 165 166 167
3 168 169 170
3 171 172 173
3 174 175 176
3 177 178 179
3 180 181 182
3 183 184 185
3 186 187 188
3 189 190 191
3 192 193 194
3 195 196 197
3 198 199 200
3 201 202 203
3 204 205 206
3 207 208 209
3 210 211 212
3 213 214 215
3 216 217 218
3 219 220 221
3 222 223 224
3 225 226 227
3 228 229 230
3 231 232 233
3 234 235 236
3 237 238 239
3 240 241 242
3 243 244 245
3 246 247 248
3 249 250 251
3 252 253 254
3 255 256 257
3 258 259 260
3 261 262 263
3 264 265 266
3 267 268 269
3 270 271 272
3 273 274 275
3 276 277 278
3 279 280 281
3 282 283 284
3 285 286 287
3 288 289 290
3 291 292 293
3 294 295 296
3 297 298 299
3 300 301 302
3 303 304 305
3 306 307 308
3 309 310 311
3 312 313 314
3 315 316 317
3 318 319 320
3 321 322 323
3 324 325 326
3 327 328 329
3 330 331 332
3 333 334 335
3 336 337 338
3 339 340 341
3 342 343 344
3 345 346 347
3 348 349 350
3 351 352 353
3 354 355 352
3 356 357 354
3 351 358 356
3 351 354 352
3 351 356 354
3 359 360 361
3 362 363 364
3 365 366 367
3 368 369 370
3 371 372 369
3 373 374 371
3 368 375 373
3 368 371 369
3 368 373 371
3 376 377 378
3 379 380 381
3 382 383 384
3 385 386 387
3 388 389 390
3 391 392 393
3 394 395 396
3 397 398 399
3 400 401 402
3 403 404 405
3 406 407 408
3 409 410 411
3 412 413 414
3 415 416 417
3 418 419 420
3 421 422 423
3 424 425 426
3 427 428 429
3 430 431 432
3 433 434 435
3 436 437 438
3 439 440 441
3 442 443 444
3 445 446 447
3 448 449 450
3 451 452 453
3 454 455 456
3 457 458 459
3 460 461 462
3 463 464 465
3 466 467 468
3 469 470 471
3 472 473 474
3 475 476 477
3 478 479 480
3 481 482 483
3 484 485 486
3 487 488 489
3 490 491 492
3 493 494 495
3 496 497 498
3 499 500 501
3 502 503 504
3 505 506 507
3 508 509 510
3 511 512 513
3 514 515 516
3 517 518 519
3 520 521 522
3 523 524 525
3 526 527 528
3 529 530 531
3 532 533 534
3 535 536 537
3 538 539 540
3 541 542 543
3 544 545 546
3 547 548 549
3 550 551 552
3 553 554 555
3 556 557 558
3 559 560 561
3 562 563 564
3 565 566 567
3 568 569 570
3 571 572 573
3 574 575 576
3 577 578 579
3 580 581 582
3 583 584 585
3 586 587 588
3 589 590 591
3 592 593 594
3 595 596 597
3 598 599 600
3 601 602 603
3 604 605 606
3 607 608 609
3 610 611 612
3 613 614 615
3 616 617 618
3 619 620 621
3 622 623 624
3 625 626 627
3 628 629 630
3 631 632 633
3 634 635 636
3 637 638 639
3 640 641 642
3 643 644 645
3 646 647 648
3 649 650 651
3 652 653 654
3 655 656 657
3 658 659 660
3 661 662 663
3 664 665 666
3 667 668 669
3 670 671 672
3 673 674 675
3 676 677 678
3 679 680 681
3 682 683 684
3 685 686 687
3 688 689 690
3 691 692 693
3 694 695 696
3 697 698 699
3 700 701 702
3 703 704 705
3 706 707 708
3 709 710 711
